<svg version="1.1" viewBox="0.0 0.0 460.0 160.0" fill="none" stroke="none" stroke-linecap="square" stroke-miterlimit="10" xmlns:xlink="http://www.w3.org/1999/xlink" xmlns="http://www.w3.org/2000/svg"><clipPath id="p.0"><path d="m0 0l960.0 0l0 540.0l-960.0 0l0 -540.0z" clip-rule="nonzero"/></clipPath><g clip-path="url(#p.0)"><path fill="none" d="m0 0l960.0 0l0 540.0l-960.0 0z" fill-rule="evenodd"/><path fill="#000000" fill-opacity="0.0" d="m0 0l460.18896 0l0 172.06299l-460.18896 0z" fill-rule="evenodd"/><path fill="#434343" d="m110.570526 68.16062q-5.5 0.9375 -18.875 2.203125l-0.46875 0q-1.8125 0 -2.953125 -1.015625q-1.140625 -1.03125 -1.296875 -2.453125l-0.078125 -0.9375q0 -2.046875 1.328125 -3.1875q1.34375 -1.140625 4.65625 -1.453125l8.25 -0.78125l4.328125 -0.5625l4.796875 -0.625l0.46875 0q1.890625 0 3.0625 1.140625q1.1875 1.140625 1.34375 2.796875l0 0.390625q0 1.65625 -1.21875 2.84375q-1.21875 1.171875 -3.34375 1.640625zm36.496475 0q-5.5 0.9375 -18.875 2.203125l-0.46875 0q-1.8125 0 -2.953125 -1.015625q-1.140625 -1.03125 -1.296875 -2.453125l-0.078125 -0.9375q0 -2.046875 1.328125 -3.1875q1.34375 -1.140625 4.65625 -1.453125l8.25 -0.78125l4.328125 -0.5625l4.796875 -0.625l0.46875 0q1.890625 0 3.0625 1.140625q1.1875 1.140625 1.34375 2.796875l0 0.390625q0 1.65625 -1.21875 2.84375q-1.21875 1.171875 -3.34375 1.640625zm18.246475 12.734375q-0.46875 1.109375 -0.703125 1.96875q-0.703125 1.8125 -1.265625 2.640625q-0.546875 0.828125 -1.71875 0.828125l-2.203125 0.078125q-1.96875 0 -3.15625 -0.828125q-1.171875 -0.828125 -1.328125 -3.34375q0.078125 -0.078125 0.78125 -1.765625q0.71875 -1.6875 1.421875 -4.609375q0.9375 -3.84375 1.875 -7.625q0.953125 -3.78125 1.828125 -7.3125q1.171875 -4.640625 3.453125 -13.875q2.28125 -9.25 3.546875 -14.6875q-0.078125 -1.171875 -0.171875 -3.25q-0.078125 -2.09375 -0.078125 -3.265625q0.25 -1.03125 1.78125 -1.65625q1.53125 -0.625 2.78125 -0.625q1.96875 0 4.09375 1.34375q2.125 1.328125 2.203125 3.21875l-5.890625 23.28125q2.125 -2.4375 5.140625 -3.421875q3.03125 -0.984375 5.625 -0.984375q3.703125 0 6.640625 2.125q2.953125 2.125 4.640625 5.625q1.703125 3.5 1.703125 7.34375q0 5.671875 -2.671875 11.140625q-2.671875 5.453125 -7.796875 8.96875q-5.109375 3.5 -11.953125 3.5q-1.96875 0 -4.84375 -1.421875q-2.859375 -1.421875 -3.734375 -3.390625zm1.890625 -6.515625q1.03125 1.796875 3.078125 3.21875q2.046875 1.421875 3.6875 1.421875q3.703125 0 6.765625 -3.265625q3.0625 -3.265625 4.875 -7.78125q1.8125 -4.53125 1.8125 -8.15625q0 -2.515625 -1.34375 -4.15625q-1.328125 -1.65625 -3.921875 -1.65625q-2.28125 0 -4.875 1.03125q-2.59375 1.015625 -4.609375 2.9375q-2.0 1.921875 -2.71875 4.4375l-2.75 11.96875zm62.541626 6.046875q0.15625 2.046875 0.546875 3.703125q-0.15625 0.46875 -1.375 0.9375q-1.21875 0.46875 -2.09375 0.46875q-2.828125 0 -4.046875 -0.828125q-1.21875 -0.8125 -1.21875 -2.46875q0 -1.578125 0.3125 -3.140625q-1.71875 2.359375 -5.0625 3.890625q-3.34375 1.53125 -5.390625 1.53125q-5.28125 0 -8.78125 -3.0625q-3.5 -3.078125 -3.5 -9.84375q0 -6.359375 3.03125 -11.984375q3.03125 -5.625 8.375 -9.046875q5.359375 -3.421875 11.890625 -3.421875q1.25 0 3.296875 0.671875q2.046875 0.65625 4.125 2.28125q2.09375 1.609375 3.5 4.125q0.640625 0 1.5 0.625q0.859375 0.625 0.859375 1.265625q0 0.703125 -0.234375 1.40625l-5.734375 22.890625zm-3.546875 -22.015625q-0.46875 -1.734375 -1.84375 -2.90625q-1.375 -1.1875 -2.484375 -1.1875q-3.609375 0 -6.796875 2.5625q-3.1875 2.546875 -5.15625 6.328125q-1.96875 3.765625 -1.96875 7.15625q0 3.296875 0.78125 5.421875q0.796875 2.125 3.078125 2.125q1.96875 0 4.515625 -1.171875q2.5625 -1.1875 4.5625 -3.1875q2.015625 -2.015625 2.640625 -4.21875l2.671875 -10.921875zm25.954163 0.234375q0 1.5625 1.421875 2.515625q1.421875 0.9375 4.484375 2.125q3.296875 1.328125 5.34375 2.515625q2.046875 1.171875 3.578125 3.421875q1.53125 2.234375 1.53125 5.703125q0 5.65625 -4.6875 8.6875q-4.671875 3.03125 -12.53125 3.03125q-3.859375 0 -7.203125 -1.21875q-3.34375 -1.21875 -5.3125 -3.03125q-1.953125 -1.8125 -1.953125 -3.609375q0 -1.890625 1.640625 -3.109375q1.65625 -1.21875 4.640625 -1.625q0.078125 1.578125 1.65625 2.953125q1.578125 1.375 3.734375 2.203125q2.171875 0.828125 3.734375 0.828125q2.671875 0 4.875 -1.453125q2.203125 -1.453125 2.203125 -3.421875q0 -3.625 -7.0 -5.75q-4.484375 -1.328125 -6.890625 -4.234375q-2.390625 -2.921875 -2.390625 -6.140625q0 -5.65625 4.671875 -8.71875q4.6875 -3.078125 12.5625 -3.078125q3.84375 0 6.875 1.1875q3.03125 1.171875 4.6875 3.03125q1.65625 1.84375 1.65625 3.640625q0 1.890625 -1.65625 3.109375q-1.65625 1.21875 -4.640625 1.609375q-0.078125 -1.5625 -1.375 -2.9375q-1.296875 -1.390625 -3.109375 -2.203125q-1.8125 -0.828125 -3.390625 -0.828125q-2.671875 0 -4.921875 1.421875q-2.234375 1.40625 -2.234375 3.375zm33.50998 6.765625q4.328125 -9.75 8.734375 -13.921875q4.40625 -4.171875 7.859375 -4.171875q4.875 0 7.75 2.4375q2.875 2.4375 2.953125 5.90625l-6.53125 26.03125q-0.625 2.4375 -1.34375 3.578125q-0.703125 1.140625 -1.578125 1.40625q-0.859375 0.28125 -2.421875 0.28125q-1.890625 0 -3.109375 -0.90625q-1.21875 -0.90625 -1.21875 -2.3125q0 -0.484375 0.078125 -0.71875q0.859375 -3.84375 4.25 -18.0q2.203125 -8.578125 2.203125 -9.203125q0 -1.109375 -1.109375 -1.109375q-0.859375 0 -5.265625 4.640625q-4.40625 4.640625 -8.625 10.390625q-4.203125 5.734375 -5.375 9.75q-0.078125 0.3125 -0.234375 0.90625q-0.15625 0.578125 -0.234375 0.90625q-0.3125 1.25 -0.71875 1.921875q-0.390625 0.671875 -1.453125 1.109375q-1.0625 0.421875 -3.109375 0.421875q-2.28125 0 -3.34375 -0.859375q-1.046875 -0.875 -1.125 -2.75q1.09375 -4.328125 1.484375 -6.453125l12.265625 -48.765625q0.328125 -1.109375 1.703125 -1.84375q1.375 -0.75 2.78125 -0.75q2.359375 0 3.375 1.265625q1.03125 1.25 1.265625 3.453125l-9.90625 37.359375zm49.8721 -23.671875q-8.890625 37.359375 -10.46875 42.703125q-0.15625 0.46875 -1.609375 1.21875q-1.453125 0.75 -2.0 0.75q-2.203125 0 -4.25 -1.109375q-2.046875 -1.09375 -2.203125 -3.53125q0.078125 -0.15625 0.78125 -1.65625q0.71875 -1.5 1.421875 -4.25q1.8125 -6.765625 4.125 -16.046875q2.328125 -9.28125 3.109375 -12.421875l3.703125 -15.03125q-0.078125 -0.625 -0.078125 -6.515625q0.234375 -1.03125 1.765625 -1.65625q1.53125 -0.625 2.796875 -0.625q1.953125 0 4.03125 1.34375q2.09375 1.328125 2.171875 3.21875l-3.296875 13.609375zm13.526398 31.609375q-0.234375 0.953125 -0.234375 1.890625q0 1.65625 0.859375 2.6875q0.875 1.015625 2.75 1.015625q2.453125 0 5.28125 -1.421875q2.828125 -1.421875 4.796875 -3.46875l1.484375 -6.203125q1.5 -6.296875 3.46875 -13.609375q0.859375 -3.140625 2.234375 -5.140625q1.390625 -2.015625 4.375 -2.015625q4.171875 0 4.171875 2.515625q0 0.390625 -0.203125 0.984375q-0.203125 0.59375 -0.28125 0.984375q-2.75 11.640625 -3.0625 12.96875q-3.6875 16.53125 -5.578125 22.96875q-2.75 9.515625 -7.875 13.53125q-5.109375 4.015625 -14.234375 4.015625q-5.5 0 -7.390625 -1.625q-1.890625 -1.609375 -1.890625 -3.96875q0 -1.40625 1.140625 -2.4375q1.140625 -1.015625 2.5625 -1.015625q1.171875 0 1.84375 0.265625q0.671875 0.28125 1.453125 0.828125q0.953125 0.71875 1.890625 1.0625q0.9375 0.359375 2.75 0.359375q1.34375 0 3.21875 -1.109375q1.890625 -1.09375 3.65625 -3.5q1.78125 -2.390625 2.796875 -5.84375l1.96875 -6.84375q-2.671875 2.515625 -5.1875 3.734375q-2.515625 1.21875 -5.65625 1.21875q-5.203125 0 -8.0 -3.21875q-2.78125 -3.234375 -2.78125 -8.578125q0 -1.578125 0.46875 -3.46875l5.03125 -19.984375l-2.046875 -2.359375q-0.234375 -0.234375 -0.234375 -0.546875q0 -0.78125 1.734375 -1.296875q1.734375 -0.515625 4.796875 -0.515625q5.03125 0 5.5 4.8125l-5.578125 22.328125z" fill-rule="nonzero"/><path fill="#888888" d="m75.06433 117.930626q1.75 0.21875 2.59375 1.125q0.859375 0.890625 0.859375 2.203125q0 1.328125 -0.96875 2.5q-0.96875 1.171875 -2.484375 1.828125q-0.671875 0.265625 -1.765625 0.390625q-1.09375 0.109375 -2.234375 0.109375q-1.921875 0 -3.9375 -0.359375q-0.359375 -0.078125 -0.765625 -0.359375q-0.390625 -0.28125 -0.390625 -0.84375q-0.03125 -2.203125 -0.171875 -6.140625l-0.015625 -1.3125q-0.09375 -3.078125 -0.09375 -4.828125q0 -0.3125 0.359375 -0.734375q0.375 -0.421875 0.90625 -0.46875q0.3125 0 0.59375 -0.03125q2.71875 -0.25 3.625 -0.25q1.8125 0 3.1875 0.34375q1.375 0.34375 2.296875 1.25q0.328125 0.390625 0.546875 0.984375q0.21875 0.578125 0.21875 1.140625q0.015625 1.171875 -0.625 2.15625q-0.625 0.984375 -1.734375 1.296875zm-3.734375 -5.140625q-0.828125 0 -1.703125 0.09375q-0.875 0.09375 -1.46875 0.25l0.140625 4.53125l0.859375 -0.03125q2.09375 -0.203125 3.078125 -0.359375q0.625 -0.140625 1.21875 -0.5625q0.609375 -0.421875 1.0 -0.890625q0.390625 -0.46875 0.390625 -0.703125q0 -0.359375 -0.140625 -0.734375q-0.140625 -0.375 -0.3125 -0.53125q-0.640625 -0.625 -1.3125 -0.84375q-0.671875 -0.21875 -1.75 -0.21875zm-2.953125 11.1875q1.21875 0.171875 2.328125 0.171875q2.421875 0 3.8125 -0.640625q1.40625 -0.640625 1.40625 -2.4375q0 -0.71875 -1.078125 -1.1875q-1.078125 -0.484375 -2.328125 -0.484375q-0.828125 0 -2.125 0.1875q-1.03125 0.140625 -2.015625 0.1875q0.046875 1.4375 0.046875 1.828125q0 0.734375 -0.03125 1.125l-0.015625 1.25zm23.269577 0.90625q0 0.53125 -0.5625 0.890625q-0.5625 0.359375 -1.046875 0.359375q-0.90625 0 -1.453125 -0.21875q-0.53125 -0.234375 -0.984375 -0.859375q-0.625 0.546875 -1.703125 0.828125q-1.078125 0.28125 -2.0 0.28125q-1.484375 0 -2.453125 -0.796875q-0.953125 -0.8125 -0.953125 -2.375q0 -0.671875 0.359375 -1.234375q0.359375 -0.5625 0.984375 -1.0q0.703125 -0.453125 1.578125 -0.703125q0.890625 -0.25 1.859375 -0.25q0.5 0 1.1875 0.1875q0.703125 0.1875 1.09375 0.40625l0 -0.390625q0 -1.28125 -0.625 -1.765625q-0.625 -0.5 -2.015625 -0.5q-0.40625 0 -0.8125 0.171875q-0.390625 0.15625 -0.890625 0.4375q-0.671875 0.375 -1.28125 0.375q-0.21875 0 -0.40625 -0.296875q-0.1875 -0.3125 -0.1875 -0.546875q0 -0.703125 0.65625 -1.203125q0.65625 -0.5 1.5625 -0.75q0.921875 -0.265625 1.640625 -0.265625q0.71875 0 1.65625 0.28125q0.9375 0.28125 1.53125 0.75q0.71875 0.625 1.109375 1.453125q0.40625 0.828125 0.40625 1.8125q0 0.3125 -0.046875 0.9375q-0.046875 0.671875 -0.046875 1.15625q0 0.21875 -0.046875 0.640625q-0.046875 0.53125 -0.046875 0.84375q0 0.296875 0.21875 0.5q0.21875 0.203125 0.5 0.203125l0.671875 -0.03125q0.265625 0 0.40625 0.203125q0.140625 0.1875 0.140625 0.46875zm-7.71875 -0.625q1.03125 0 1.71875 -0.203125q0.703125 -0.21875 1.6875 -0.796875q0.09375 -0.40625 0.109375 -1.078125q-1.3125 -0.625 -2.171875 -0.625q-0.984375 0 -1.765625 0.359375q-0.765625 0.359375 -0.765625 1.265625q0 0.453125 0.390625 0.765625q0.390625 0.3125 0.796875 0.3125zm16.019592 -3.625q0.203125 0.125 0.765625 0.453125q0.5625 0.328125 0.75 0.765625q0.203125 0.421875 0.203125 1.1875q0 0.859375 -0.515625 1.53125q-0.5 0.65625 -1.296875 1.015625q-0.578125 0.265625 -1.40625 0.40625q-0.828125 0.140625 -1.296875 0.140625q-0.484375 0 -1.25 -0.140625q-0.75 -0.140625 -1.03125 -0.265625q-0.75 -0.4375 -1.296875 -1.046875q-0.53125 -0.625 -0.53125 -1.28125q0 -0.484375 0.3125 -0.75q0.3125 -0.28125 0.8125 -0.28125q0.25 0 0.5 0.1875q0.265625 0.171875 0.375 0.359375q0.265625 0.625 0.875 0.9375q0.625 0.3125 1.28125 0.3125q0.84375 0 1.5625 -0.265625q0.71875 -0.28125 0.71875 -0.765625q0 -0.21875 -0.109375 -0.34375q-0.109375 -0.140625 -0.296875 -0.28125q-0.34375 -0.234375 -1.015625 -0.390625q-0.671875 -0.15625 -0.859375 -0.203125q-0.984375 -0.21875 -1.921875 -0.65625q-0.9375 -0.453125 -1.5 -1.078125q-0.546875 -0.625 -0.546875 -1.609375q0 -0.640625 0.484375 -1.34375q0.484375 -0.71875 1.078125 -1.0q0.4375 -0.171875 1.453125 -0.359375q1.015625 -0.203125 1.375 -0.203125q0.5625 0 1.203125 0.109375q0.65625 0.109375 0.984375 0.359375q0.65625 0.375 1.0625 0.796875q0.40625 0.421875 0.40625 0.953125q0 0.265625 -0.125 0.5625q-0.109375 0.296875 -0.28125 0.375q-0.359375 0.15625 -0.84375 0.15625q-0.21875 0 -0.359375 -0.109375q-0.125 -0.125 -0.328125 -0.390625q-0.265625 -0.40625 -0.515625 -0.484375q-0.28125 -0.0625 -0.84375 -0.171875q-0.546875 -0.109375 -0.734375 -0.109375q-0.546875 0 -1.140625 0.3125q-0.59375 0.3125 -0.59375 0.71875q0 0.21875 0.171875 0.34375q0.1875 0.109375 0.390625 0.21875q0.203125 0.09375 0.28125 0.109375q0.5 0.234375 1.109375 0.40625q0.625 0.171875 0.765625 0.21875q1.296875 0.3125 1.71875 0.59375zm13.758087 5.484375q-1.796875 0 -2.421875 -1.390625q-0.3125 -0.703125 -0.40625 -1.8125q-0.09375 -1.125 -0.09375 -2.640625l0 -0.734375q0 -1.734375 -1.15625 -1.734375q-0.671875 0 -1.34375 0.6875q-0.671875 0.6875 -1.125 1.8125q-0.4375 1.109375 -0.4375 2.296875q0 0.796875 0.078125 1.453125q0.046875 0.8125 0.046875 1.234375q0 0.828125 -1.125 0.828125q-0.5625 0 -0.984375 -0.234375q-0.40625 -0.25 -0.40625 -0.640625q0.09375 -1.21875 0.09375 -3.015625l-0.03125 -3.171875q0 -0.765625 -0.125 -5.6875l-0.0625 -2.203125q0 -0.53125 0.46875 -0.921875q0.484375 -0.40625 1.09375 -0.40625q0.515625 0 0.75 0.25q0.25 0.234375 0.25 0.734375q0 0.625 -0.03125 1.453125q-0.015625 0.828125 -0.03125 1.265625q-0.078125 1.21875 -0.078125 2.4375q0 1.203125 -0.046875 1.90625q0.71875 -1.0625 1.640625 -1.578125q0.921875 -0.515625 2.171875 -0.515625q0.90625 0 1.6875 0.8125q0.78125 0.796875 0.953125 1.828125q0.046875 0.53125 0.046875 1.5625l-0.015625 1.75q0 0.40625 0.046875 1.265625q0.015625 0.421875 0.265625 0.875q0.25 0.453125 0.59375 0.671875q0.3125 0.1875 0.40625 0.390625q0.09375 0.1875 0.09375 0.421875q0 0.234375 -0.21875 0.5q-0.203125 0.25 -0.546875 0.25zm20.03894 -12.96875q0.359375 0.4375 0.5 0.703125q0.15625 0.265625 0.15625 0.5q0 0.28125 -0.375 0.671875q-0.375 0.390625 -0.734375 0.390625q-0.484375 0 -0.78125 -0.140625q-0.28125 -0.15625 -0.46875 -0.46875q-0.453125 -0.71875 -1.0625 -1.28125q-0.59375 -0.5625 -1.59375 -0.5625q-0.984375 0 -2.21875 0.453125q-1.21875 0.453125 -1.796875 1.125q-1.296875 1.59375 -1.296875 4.203125q0 2.09375 1.296875 3.578125q1.375 1.53125 3.453125 1.53125q0.96875 0 2.109375 -0.34375q1.140625 -0.34375 1.8125 -1.140625l-0.03125 0q0.4375 -0.453125 1.078125 -0.453125q0.390625 0 0.734375 0.34375q0.34375 0.328125 0.34375 0.65625q0 0.359375 -0.109375 0.640625q-0.09375 0.28125 -0.390625 0.609375q-0.984375 1.078125 -2.515625 1.5q-1.515625 0.421875 -3.453125 0.421875q-1.609375 0 -3.09375 -0.765625q-1.46875 -0.765625 -2.4375 -1.9375q-0.46875 -0.703125 -0.921875 -2.0q-0.4375 -1.3125 -0.4375 -2.140625q0 -2.078125 0.625 -3.953125q0.640625 -1.890625 1.921875 -3.03125q0.828125 -0.765625 2.40625 -1.140625q1.59375 -0.390625 2.921875 -0.390625q1.046875 0 1.796875 0.296875q0.765625 0.296875 1.3125 0.796875q0.5625 0.484375 1.25 1.328125zm12.728836 5.1875q0.1875 0.328125 0.296875 0.96875q0.125 0.640625 0.125 1.140625q0 0.65625 -0.140625 1.453125q-0.140625 0.78125 -0.265625 1.21875q-1.65625 3.015625 -4.890625 3.015625q-1.203125 0 -2.453125 -0.78125q-1.25 -0.796875 -1.71875 -1.828125q-0.65625 -2.046875 -0.65625 -2.625q0 -0.953125 0.421875 -2.03125q0.421875 -1.078125 1.0625 -1.875q0.4375 -0.546875 1.484375 -0.9375q1.0625 -0.40625 1.921875 -0.40625q1.6875 0 2.84375 0.640625q1.171875 0.625 1.96875 2.046875zm-2.09375 3.859375q0.125 -0.234375 0.125 -1.609375q0 -0.6875 -0.265625 -1.359375q-0.25 -0.671875 -0.71875 -1.15625q-0.046875 -0.046875 -0.265625 -0.15625q-0.21875 -0.109375 -0.59375 -0.21875q-0.375 -0.109375 -0.84375 -0.109375q-1.34375 0 -1.96875 1.09375q-0.625 1.078125 -0.625 2.4375q0 0.21875 0.140625 0.890625q0.140625 0.671875 0.21875 0.859375q0.1875 0.34375 0.765625 0.796875q0.59375 0.4375 1.296875 0.4375q1.078125 0 1.703125 -0.515625q0.640625 -0.515625 1.03125 -1.390625zm19.34822 -0.375l0.09375 -1.859375q0 -1.0 -0.234375 -1.484375q-0.21875 -0.484375 -1.015625 -0.484375q-1.515625 0 -2.28125 1.703125q-0.765625 1.6875 -0.765625 4.921875q0 0.15625 0 0.59375q0.015625 0.4375 -0.140625 0.6875q-0.15625 0.234375 -0.53125 0.234375q-0.96875 0 -1.3125 -0.515625q-0.328125 -0.53125 -0.328125 -1.5625q0 -0.53125 0.15625 -2.171875q0.109375 -1.140625 0.109375 -1.609375q0 -1.1875 -0.359375 -1.734375q-0.359375 -0.5625 -1.25 -0.5625q-1.03125 0 -1.703125 1.03125q-0.671875 1.03125 -0.984375 2.5625q-0.3125 1.515625 -0.3125 3.0q0 0.703125 -0.234375 1.140625q-0.21875 0.421875 -0.84375 0.421875q-0.453125 0 -0.90625 -0.25q-0.453125 -0.25 -0.453125 -0.6875q0 -0.453125 0.09375 -0.90625q0.125 -0.75 0.1875 -2.1875q0.078125 -1.4375 0.078125 -2.703125q0 -0.578125 -0.28125 -1.109375q-0.28125 -0.546875 -0.65625 -0.546875q-0.09375 0 -0.359375 0.09375q-0.25 0.09375 -0.359375 0.09375q-0.3125 0 -0.5625 -0.28125q-0.25 -0.296875 -0.25 -0.484375q0 -0.609375 0.578125 -1.015625q0.59375 -0.421875 1.234375 -0.421875q0.890625 0 1.546875 0.59375q0.671875 0.59375 1.0 1.609375q0.578125 -1.03125 1.359375 -1.609375q0.78125 -0.59375 1.90625 -0.59375q2.0625 0 3.0 1.84375q0.546875 -0.890625 1.703125 -1.359375q1.171875 -0.484375 2.3125 -0.484375q0.8125 0 1.546875 0.484375q0.75 0.484375 1.1875 1.296875q0.453125 0.796875 0.453125 1.671875q0 0.546875 -0.125 2.421875q-0.015625 0.3125 -0.046875 0.6875q-0.015625 0.359375 -0.015625 0.78125q0 0.5 0.25 0.8125q0.25 0.3125 0.65625 0.375q0.8125 0.203125 0.8125 0.671875q0 0.5625 -0.5 0.890625q-0.5 0.3125 -1.125 0.3125q-1.1875 0 -1.796875 -0.671875q-0.609375 -0.6875 -0.609375 -1.984375l0.078125 -1.65625zm20.832947 3.375q-0.359375 -0.671875 -0.46875 -1.5q-0.09375 -0.828125 -0.09375 -2.28125q0 -1.40625 -0.390625 -2.4375q-0.375 -1.03125 -1.578125 -1.03125q-0.453125 0 -0.90625 0.28125q-0.4375 0.28125 -0.640625 0.6875q-0.34375 0.640625 -0.46875 1.40625q-0.109375 0.75 -0.109375 1.734375q0 0.625 0.0625 1.265625q0 0.203125 0.03125 0.625q0.046875 0.40625 0.046875 0.75q0 1.4375 -1.015625 1.4375q-1.3125 0 -1.390625 -1.390625q0 -0.984375 0.03125 -1.0625l0 -1.03125q0 -0.859375 -0.078125 -1.671875q-0.0625 -0.8125 -0.171875 -1.21875q-0.203125 -0.796875 -0.5625 -1.21875q-0.34375 -0.4375 -1.09375 -0.4375q-1.046875 0 -1.703125 0.90625q-0.453125 0.71875 -0.59375 1.75q-0.140625 1.328125 -0.203125 2.078125q-0.0625 0.75 -0.0625 1.734375q0 0.703125 -0.234375 1.140625q-0.21875 0.421875 -0.84375 0.421875q-0.453125 0 -0.953125 -0.25q-0.484375 -0.25 -0.484375 -0.6875q0 -0.453125 0.09375 -0.90625q0.21875 -1.375 0.21875 -4.890625q0 -0.578125 -0.28125 -1.109375q-0.28125 -0.546875 -0.65625 -0.546875q-0.09375 0 -0.359375 0.09375q-0.25 0.09375 -0.359375 0.09375q-0.3125 0 -0.5625 -0.28125q-0.25 -0.296875 -0.25 -0.484375q0 -0.609375 0.578125 -1.015625q0.59375 -0.421875 1.234375 -0.421875q0.890625 0 1.515625 0.546875q0.625 0.546875 0.96875 1.53125q0.546875 -0.953125 1.484375 -1.546875q0.9375 -0.59375 2.078125 -0.59375q0.71875 0 1.15625 0.1875q0.453125 0.171875 0.734375 0.5q0.296875 0.328125 0.75 0.96875q0.609375 -0.765625 1.546875 -1.1875q0.953125 -0.4375 1.96875 -0.4375q1.1875 0 2.140625 0.96875q0.96875 0.96875 1.3125 2.25q0.171875 0.640625 0.171875 2.5l0.09375 1.390625q0.109375 1.25 0.8125 1.5q0.8125 0.25 0.8125 0.515625q0 0.578125 -0.28125 0.828125q-0.21875 0.15625 -0.609375 0.328125q-0.375 0.15625 -0.59375 0.15625q-1.296875 0 -1.84375 -0.9375zm15.933945 -0.3125q0 0.53125 -0.578125 0.890625q-0.578125 0.359375 -1.0625 0.359375q-0.890625 0 -1.4375 -0.21875q-0.53125 -0.234375 -1.0 -0.859375q-0.609375 0.546875 -1.6875 0.828125q-1.078125 0.28125 -1.984375 0.28125q-1.5 0 -2.46875 -0.796875q-0.96875 -0.8125 -0.96875 -2.375q0 -0.671875 0.40625 -1.359375q0.40625 -0.6875 1.015625 -1.09375q0.640625 -0.421875 1.453125 -0.578125q0.828125 -0.15625 1.90625 -0.15625q0.5 0 1.1875 0.1875q0.703125 0.1875 1.109375 0.40625l0 -0.390625q0 -1.28125 -0.640625 -1.765625q-0.625 -0.5 -2.015625 -0.5q-0.4375 0 -0.796875 0.125q-0.34375 0.125 -0.796875 0.375q-0.421875 0.234375 -0.8125 0.234375q-0.34375 0 -0.65625 -0.265625q-0.296875 -0.28125 -0.296875 -0.59375q0 -1.015625 1.25 -1.484375q1.265625 -0.46875 2.578125 -0.46875q0.671875 0 1.53125 0.28125q0.875 0.28125 1.46875 0.75q0.71875 0.609375 1.109375 1.453125q0.40625 0.828125 0.40625 1.8125q0 0.3125 -0.046875 0.9375q-0.046875 0.671875 -0.046875 1.15625l-0.03125 0.640625q-0.046875 0.53125 -0.046875 0.84375q0 0.296875 0.203125 0.5q0.203125 0.203125 0.5 0.203125l0.671875 -0.03125q0.265625 0 0.421875 0.203125q0.15625 0.203125 0.15625 0.46875zm-7.75 -0.625q1.03125 0 1.71875 -0.203125q0.703125 -0.21875 1.6875 -0.796875q0.09375 -0.40625 0.109375 -1.078125q-1.3125 -0.625 -2.171875 -0.625q-0.828125 0 -1.328125 0.0625q-0.5 0.046875 -0.90625 0.421875q-0.40625 0.359375 -0.40625 1.140625q0 0.453125 0.4375 0.765625q0.453125 0.3125 0.859375 0.3125zm9.112213 -6.671875q-0.1875 -0.140625 -0.3125 -0.296875q-0.125 -0.15625 -0.125 -0.5625q0 -0.453125 0.328125 -0.703125q0.328125 -0.25 0.765625 -0.25q0.828125 0 1.4375 0.4375q0.625 0.421875 0.90625 1.1875q0.53125 -0.984375 1.34375 -1.359375q0.8125 -0.375 2.265625 -0.375q0.5625 0 1.171875 0.359375q0.625 0.34375 1.125 0.84375q0.40625 0.53125 0.6875 1.3125q0.296875 0.78125 0.296875 1.40625q0 0.359375 -0.046875 1.171875q-0.046875 0.859375 -0.046875 1.375q0 1.671875 0.640625 2.0625q0.09375 0.046875 0.359375 0.125q0.265625 0.0625 0.390625 0.140625q0.140625 0.0625 0.140625 0.203125q0.03125 0.578125 -0.421875 0.953125q-0.4375 0.375 -1.0625 0.375q-0.9375 0 -1.46875 -0.5q-0.53125 -0.515625 -0.734375 -1.546875q-0.125 -0.375 -0.125 -1.125q0 -0.40625 0.046875 -1.3125q0.078125 -0.71875 0.078125 -1.546875q0 -0.828125 -0.484375 -1.46875q-0.484375 -0.640625 -1.328125 -0.640625q-0.5 0 -1.0625 0.3125q-0.546875 0.296875 -0.75 0.71875q-0.359375 0.75 -0.484375 1.515625q-0.296875 1.484375 -0.296875 2.859375q0 0.328125 0.0625 1.296875q0 0.0625 0 0.34375q0 0.28125 -0.0625 0.515625q-0.0625 0.234375 -0.203125 0.4375q-0.09375 0.09375 -0.359375 0.1875q-0.265625 0.09375 -0.46875 0.09375q-0.328125 0 -0.84375 -0.28125q-0.5 -0.296875 -0.59375 -0.65625l-0.015625 -0.328125q0 -0.203125 0.046875 -0.578125q0.28125 -1.6875 0.28125 -2.9375q0 -0.546875 -0.015625 -0.828125l-0.03125 -1.109375q0 -0.5 -0.296875 -0.96875q-0.28125 -0.46875 -0.734375 -0.859375zm22.557587 -6.578125q0 0.25 -0.0625 0.609375q-0.03125 0.140625 -0.0625 0.3125q-0.015625 0.171875 -0.03125 0.40625q-0.21875 2.15625 -0.21875 5.34375q0 3.03125 0.25 4.5q0.265625 1.453125 0.828125 1.75l0.453125 0.1875q0.359375 0.125 0.53125 0.265625q0.1875 0.140625 0.1875 0.484375q0 0.46875 -0.5 0.828125q-0.5 0.34375 -1.109375 0.34375q-0.625 0 -1.234375 -0.515625q-0.59375 -0.515625 -0.96875 -1.3125q-0.40625 0.875 -1.4375 1.390625q-1.03125 0.515625 -1.96875 0.515625q-0.84375 0 -1.46875 -0.234375q-0.625 -0.234375 -1.296875 -0.703125q-0.8125 -0.578125 -1.234375 -1.46875q-0.421875 -0.890625 -0.421875 -1.9375q0 -1.0625 0.40625 -2.25q0.40625 -1.1875 0.9375 -1.953125q0.625 -0.890625 1.65625 -1.328125q1.03125 -0.453125 2.140625 -0.453125q0.625 0 1.078125 0.234375q0.453125 0.21875 0.9375 0.625q0 -1.1875 -0.046875 -2.015625q-0.03125 -0.203125 -0.03125 -0.5q0 -2.0625 0.34375 -3.265625q0.265625 -1.0 1.265625 -1.0q0.546875 0 0.8125 0.234375q0.265625 0.234375 0.265625 0.90625zm-7.4375 10.71875q0 1.21875 0.796875 1.859375q0.359375 0.34375 0.59375 0.46875q0.25 0.109375 0.609375 0.109375q0.6875 0 1.328125 -0.390625q0.640625 -0.390625 1.0 -1.03125q0.375 -0.65625 0.375 -1.40625l-0.015625 -2.375q-0.515625 -0.578125 -0.9375 -0.796875q-0.40625 -0.234375 -0.875 -0.234375q-1.53125 0 -2.109375 1.171875q-0.3125 0.546875 -0.546875 1.25q-0.21875 0.703125 -0.21875 1.375zm18.002823 -10.921875q0.453125 0 0.828125 0.234375q0.375 0.234375 0.4375 0.84375q0.296875 1.890625 0.375 3.78125q0.09375 1.875 0.09375 4.25q0 1.015625 -0.171875 3.671875q1.046875 0.09375 1.625 0.09375q0.40625 0 1.84375 -0.109375q0.84375 -0.125 1.46875 -0.125q0.578125 0 1.046875 0.109375q0.484375 0.109375 1.0 0.34375q0.5 0.296875 0.5 0.890625q0 0.484375 -0.296875 0.875q-0.296875 0.375 -0.71875 0.375q-0.28125 0 -0.90625 -0.09375q-1.125 -0.171875 -2.15625 -0.171875q-0.34375 0 -0.765625 0.046875q-0.40625 0.03125 -0.609375 0.03125q-0.578125 0.0625 -1.140625 0.0625q-1.1875 0 -2.125 -0.109375q-0.46875 -0.046875 -0.953125 -0.375q-0.484375 -0.328125 -0.484375 -0.953125q0 -0.359375 0.09375 -1.84375q0.171875 -2.46875 0.171875 -3.765625q0 -1.015625 -0.09375 -2.109375q-0.09375 -1.109375 -0.125 -1.40625q-0.203125 -2.03125 -0.203125 -3.359375q0 -0.609375 0.296875 -0.890625q0.296875 -0.296875 0.96875 -0.296875zm11.66684 -0.171875q0.84375 0.0625 1.453125 0.4375q0.625 0.375 0.625 1.125q0 0.546875 -0.515625 0.875q-0.515625 0.328125 -1.234375 0.328125q-0.6875 0 -0.953125 -0.359375q-0.265625 -0.375 -0.265625 -0.75q0 -0.71875 0.15625 -1.203125q0.15625 -0.484375 0.734375 -0.453125zm1.921875 10.625l0 0.703125q0 0.9375 0.046875 1.765625q0.0625 0.828125 0.15625 1.671875q-0.015625 0.234375 -0.359375 0.484375q-0.328125 0.25 -0.59375 0.25q-0.453125 0 -0.921875 -0.171875q-0.46875 -0.1875 -0.5625 -0.453125q-0.140625 -0.765625 -0.140625 -1.359375q0 -1.96875 -0.125 -4.421875q-0.09375 -2.15625 -0.09375 -3.03125q0 -0.421875 0.421875 -0.734375q0.4375 -0.3125 0.921875 -0.3125q0.6875 0 0.96875 0.3125q0.28125 0.3125 0.28125 0.984375l0 4.3125zm13.940842 2.9375q0.125 0.046875 0.375 0.125q0.265625 0.0625 0.390625 0.140625q0.125 0.0625 0.125 0.203125q0.015625 0.578125 -0.4375 0.953125q-0.4375 0.375 -1.03125 0.375q-0.9375 0 -1.46875 -0.5q-0.53125 -0.515625 -0.765625 -1.546875q-0.09375 -0.40625 -0.09375 -1.125q0 -0.40625 0.046875 -1.3125q0.046875 -0.96875 0.046875 -1.546875q0 -0.828125 -0.46875 -1.46875q-0.46875 -0.640625 -1.3125 -0.640625q-0.5 0 -1.046875 0.3125q-0.546875 0.296875 -0.765625 0.71875q-0.35935974 0.703125 -0.51560974 1.515625q-0.25 1.4375 -0.25 3.0q0 0.75 0.015625 1.15625q0 0.09375 0.015625 0.375q0.015625 0.265625 -0.046875 0.5q-0.0625 0.21875 -0.203125 0.421875q-0.125 0.109375 -0.375 0.1875q-0.25 0.09375 -0.46875 0.09375q-0.34375 0 -0.84375 -0.28125q-0.5 -0.296875 -0.578125 -0.65625l-0.015625 -0.40625q0 -0.21875 0.046875 -0.5q0.28125 -1.6875 0.28125 -2.9375q0 -0.546875 -0.015625 -0.859375l-0.03125 -1.125q0 -0.578125 -0.296875 -1.109375q-0.28125 -0.546875 -0.65625 -0.546875q-0.125 0 -0.34375 0.09375q-0.21875 0.078125 -0.359375 0.078125q-0.234375 0 -0.515625 -0.234375q-0.265625 -0.25 -0.265625 -0.515625q0 -0.5 0.328125 -0.8125q0.359375 -0.296875 0.703125 -0.453125q0.359375 -0.171875 0.8125 -0.171875q0.375 0 0.609375 0.078125q0.25 0.0625 0.65625 0.3125q0.21875 0.109375 0.5 0.515625q0.296875 0.40625 0.484375 1.15625q0.625 -1.15625 1.5468597 -1.625q0.921875 -0.46875 2.375 -0.46875q0.546875 0 1.171875 0.375q0.640625 0.359375 1.109375 0.828125q0.421875 0.53125 0.703125 1.3125q0.296875 0.78125 0.296875 1.40625q0 0.359375 -0.046875 1.171875q-0.078125 0.65625 -0.078125 1.375q0 1.671875 0.65625 2.0625zm2.3724976 -3.65625q0 -1.453125 0.640625 -2.421875q0.65625 -0.984375 1.8125 -1.84375q0.328125 -0.25 1.125 -0.421875q0.796875 -0.1875 1.390625 -0.1875q0.71875 0 1.515625 0.3125q0.8125 0.296875 1.3125 0.671875q0.890625 0.65625 1.21875 1.515625q0.34375 0.84375 0.34375 2.015625q0 0.5 -0.5625 0.96875q-0.5625 0.46875 -1.21875 0.46875l-0.90625 -0.015625q-0.6875 0 -1.984375 0.046875l-0.515625 0.015625q-0.515625 0.0625 -0.78125 0.0625q-0.390625 0 -1.0625 -0.109375q0.09375 1.140625 0.828125 1.78125q0.75 0.625 1.625 0.625q1.5 0 2.109375 -0.59375q0.5 -0.359375 0.671875 -0.453125q0.171875 -0.109375 0.53125 -0.109375q0.375 0 0.65625 0.359375q0.296875 0.359375 0.296875 0.71875q0 0.40625 -0.5 0.828125q-0.484375 0.421875 -1.328125 0.875q-0.453125 0.203125 -1.25 0.34375q-0.78125 0.140625 -1.3125 0.140625q-0.84375 0 -1.875 -0.484375q-1.03125 -0.5 -1.53125 -1.09375q-0.5 -0.609375 -0.875 -1.703125q-0.375 -1.109375 -0.375 -2.3125zm4.78125 -0.640625q1.703125 0 2.484375 -0.125q-0.046875 -0.6875 -0.4375 -1.125q-0.375 -0.453125 -1.046875 -0.765625q-0.21875 -0.09375 -0.390625 -0.140625q-0.15625 -0.0625 -0.375 -0.0625q-1.109375 0 -1.859375 0.609375q-0.75 0.59375 -0.90625 1.53125q1.203125 0.078125 2.53125 0.078125zm13.846802 6.21875q-0.5625 0 -0.84375 -0.296875q-0.28125 -0.3125 -0.28125 -0.625q0.140625 -0.859375 0.15625 -1.84375q0.03125 -0.984375 0.03125 -1.171875l0 -0.875q0 -0.984375 -0.03125 -1.734375q-0.015625 -0.75 -0.046875 -1.28125q-0.09375 -2.109375 -0.09375 -3.296875l0 -0.734375q0.046875 -1.15625 0.125 -2.015625q0.015625 -0.34375 0.40625 -0.71875q0.40625 -0.390625 1.109375 -0.484375q2.265625 -0.234375 5.65625 -0.234375l0.765625 0q0.84375 0 1.671875 0.3125q0.828125 0.3125 0.828125 1.046875q0 0.5 -0.25 0.8125q-0.234375 0.296875 -0.921875 0.296875q-0.3125 0 -0.71875 -0.046875q-0.40625 -0.046875 -0.578125 -0.078125q-0.921875 -0.140625 -1.421875 -0.140625q-2.78125 0 -4.21875 0.390625l0 1.3125l0 2.765625q1.625 0 3.40625 -0.15625q1.296875 -0.09375 1.671875 -0.09375q0.5625 0 0.953125 0.265625q0.390625 0.25 0.390625 0.75q0 1.25 -1.703125 1.25q-0.40625 0 -1.21875 0.09375q-0.90625 0.09375 -1.421875 0.09375q-0.3125 0 -0.875 -0.046875q-0.75 -0.046875 -1.015625 -0.03125q-0.015625 0.625 0.03125 1.953125l0.015625 1.609375q0 0.8125 -0.03125 1.21875q-0.015625 0.390625 -0.140625 0.84375q-0.0625 0.375 -0.421875 0.640625q-0.359375 0.25 -0.984375 0.25zm10.947571 -8.5q-0.625 -0.4375 -0.625 -0.921875q0 -0.328125 0.28125 -0.609375q0.28125 -0.296875 0.859375 -0.296875q0.671875 0 1.203125 0.359375q0.546875 0.34375 0.765625 0.984375q0.5625 -0.640625 1.265625 -1.015625q0.703125 -0.390625 1.453125 -0.390625q0.890625 0 1.609375 0.484375q0.71875 0.46875 0.71875 1.28125q0 0.453125 -0.40625 0.9375q-0.390625 0.484375 -0.796875 0.484375q-0.21875 0 -0.375 -0.109375q-0.15625 -0.109375 -0.375 -0.328125q-0.234375 -0.234375 -0.40625 -0.34375q-0.15625 -0.109375 -0.375 -0.109375q-0.390625 0 -0.734375 0.125q-0.328125 0.109375 -0.453125 0.28125q-0.375 0.59375 -0.5625 1.078125q-0.171875 0.484375 -0.171875 1.03125q0 0.40625 -0.03125 0.65625l-0.015625 1.359375q0 0.3125 0.015625 0.703125q0.03125 0.375 0.046875 0.578125q0.078125 0.640625 0.078125 1.25q0 0.40625 -0.3125 0.71875q-0.3125 0.3125 -0.765625 0.3125q-0.71875 0 -1.0625 -0.28125q-0.328125 -0.28125 -0.328125 -1.015625l-0.03125 -1.546875q-0.015625 -0.453125 -0.015625 -1.296875l0.015625 -1.578125q0.046875 -1.15625 0.046875 -1.875q0 -0.265625 -0.109375 -0.46875q-0.09375 -0.21875 -0.40625 -0.4375zm19.844849 7.265625q0 0.53125 -0.578125 0.890625q-0.578125 0.359375 -1.0625 0.359375q-0.890625 0 -1.4375 -0.21875q-0.53125 -0.234375 -1.0 -0.859375q-0.609375 0.546875 -1.6875 0.828125q-1.078125 0.28125 -1.984375 0.28125q-1.5 0 -2.46875 -0.796875q-0.96875 -0.8125 -0.96875 -2.375q0 -0.671875 0.40625 -1.359375q0.40625 -0.6875 1.015625 -1.09375q0.640625 -0.421875 1.453125 -0.578125q0.828125 -0.15625 1.90625 -0.15625q0.5 0 1.1875 0.1875q0.703125 0.1875 1.109375 0.40625l0 -0.390625q0 -1.28125 -0.640625 -1.765625q-0.625 -0.5 -2.015625 -0.5q-0.4375 0 -0.796875 0.125q-0.34375 0.125 -0.796875 0.375q-0.421875 0.234375 -0.8125 0.234375q-0.34375 0 -0.65625 -0.265625q-0.296875 -0.28125 -0.296875 -0.59375q0 -1.015625 1.25 -1.484375q1.265625 -0.46875 2.578125 -0.46875q0.671875 0 1.53125 0.28125q0.875 0.28125 1.46875 0.75q0.71875 0.609375 1.109375 1.453125q0.40625 0.828125 0.40625 1.8125q0 0.3125 -0.046875 0.9375q-0.046875 0.671875 -0.046875 1.15625l-0.03125 0.640625q-0.046875 0.53125 -0.046875 0.84375q0 0.296875 0.203125 0.5q0.203125 0.203125 0.5 0.203125l0.671875 -0.03125q0.265625 0 0.421875 0.203125q0.15625 0.203125 0.15625 0.46875zm-7.75 -0.625q1.03125 0 1.71875 -0.203125q0.703125 -0.21875 1.6875 -0.796875q0.09375 -0.40625 0.109375 -1.078125q-1.3125 -0.625 -2.171875 -0.625q-0.828125 0 -1.328125 0.0625q-0.5 0.046875 -0.90625 0.421875q-0.40625 0.359375 -0.40625 1.140625q0 0.453125 0.4375 0.765625q0.453125 0.3125 0.859375 0.3125zm23.830994 -2.4375l0.09375 -1.859375q0 -1.0 -0.234375 -1.484375q-0.21875 -0.484375 -1.015625 -0.484375q-1.515625 0 -2.28125 1.703125q-0.765625 1.6875 -0.765625 4.921875q0 0.15625 0 0.59375q0.015625 0.4375 -0.140625 0.6875q-0.15625 0.234375 -0.53125 0.234375q-0.96875 0 -1.3125 -0.515625q-0.328125 -0.53125 -0.328125 -1.5625q0 -0.53125 0.15625 -2.171875q0.109375 -1.140625 0.109375 -1.609375q0 -1.1875 -0.359375 -1.734375q-0.359375 -0.5625 -1.25 -0.5625q-1.03125 0 -1.703125 1.03125q-0.671875 1.03125 -0.984375 2.5625q-0.3125 1.515625 -0.3125 3.0q0 0.703125 -0.234375 1.140625q-0.21875 0.421875 -0.84375 0.421875q-0.453125 0 -0.90625 -0.25q-0.453125 -0.25 -0.453125 -0.6875q0 -0.453125 0.09375 -0.90625q0.125 -0.75 0.1875 -2.1875q0.078125 -1.4375 0.078125 -2.703125q0 -0.578125 -0.28125 -1.109375q-0.28125 -0.546875 -0.65625 -0.546875q-0.09375 0 -0.359375 0.09375q-0.25 0.09375 -0.359375 0.09375q-0.3125 0 -0.5625 -0.28125q-0.25 -0.296875 -0.25 -0.484375q0 -0.609375 0.578125 -1.015625q0.59375 -0.421875 1.234375 -0.421875q0.890625 0 1.546875 0.59375q0.671875 0.59375 1.0 1.609375q0.578125 -1.03125 1.359375 -1.609375q0.78125 -0.59375 1.90625 -0.59375q2.0625 0 3.0 1.84375q0.546875 -0.890625 1.703125 -1.359375q1.171875 -0.484375 2.3125 -0.484375q0.8125 0 1.546875 0.484375q0.75 0.484375 1.1875 1.296875q0.453125 0.796875 0.453125 1.671875q0 0.546875 -0.125 2.421875q-0.015625 0.3125 -0.046875 0.6875q-0.015625 0.359375 -0.015625 0.78125q0 0.5 0.25 0.8125q0.25 0.3125 0.65625 0.375q0.8125 0.203125 0.8125 0.671875q0 0.5625 -0.5 0.890625q-0.5 0.3125 -1.125 0.3125q-1.1875 0 -1.796875 -0.671875q-0.609375 -0.6875 -0.609375 -1.984375l0.078125 -1.65625zm5.489197 -0.875q0 -0.90625 0.328125 -1.828125q0.34375 -0.921875 0.890625 -1.6875q0.5625 -0.78125 1.75 -1.265625q1.203125 -0.5 2.140625 -0.5q0.96875 0 1.953125 0.265625q1.0 0.265625 1.390625 0.828125q0.890625 1.234375 0.890625 2.4375q0 0.65625 -0.28125 1.109375q-0.28125 0.453125 -0.78125 0.984375q-0.40625 0.4375 -1.28125 0.578125q-0.875 0.140625 -1.734375 0.140625q-0.5625 0 -1.359375 -0.109375q-0.78125 -0.109375 -1.53125 -0.28125q0.046875 0.484375 0.234375 0.9375q0.203125 0.453125 0.46875 0.703125q0.46875 0.453125 0.984375 0.578125q0.515625 0.109375 1.34375 0.109375q0.859375 0 1.609375 -0.28125q0.59375 -0.21875 0.984375 -0.21875q0.453125 0 0.6875 0.28125q0.25 0.265625 0.25 0.703125q0 0.59375 -0.703125 0.984375q-0.703125 0.390625 -1.609375 0.578125q-0.890625 0.171875 -1.4375 0.171875q-1.125 0 -2.1875 -0.40625q-1.046875 -0.421875 -1.75 -1.15625q-0.578125 -0.671875 -0.921875 -1.625q-0.328125 -0.953125 -0.328125 -2.03125zm5.234375 -3.234375q-0.53125 0 -1.0625 0.203125q-0.515625 0.203125 -0.859375 0.5625q-0.4375 0.453125 -0.59375 0.734375q-0.15625 0.28125 -0.203125 0.75q0.609375 0.203125 2.5 0.203125q1.03125 0 1.59375 -0.3125q0.5625 -0.3125 0.5625 -0.828125q0 -0.5 -0.625 -0.90625q-0.609375 -0.40625 -1.3125 -0.40625zm17.494843 2.609375q0.140625 -0.515625 0.3125 -1.4375q0.234375 -1.078125 0.375 -1.625q0.15625 -0.5625 0.390625 -0.9375q0.265625 -0.4375 0.46875 -0.578125q0.203125 -0.140625 0.453125 -0.140625q1.234375 0 1.234375 0.953125q0 0.484375 -0.375 1.796875q-1.28125 3.84375 -1.828125 5.953125q-0.234375 0.890625 -0.71875 1.359375q-0.484375 0.46875 -1.296875 0.46875q-0.40625 0 -0.828125 -0.390625q-0.421875 -0.40625 -0.6875 -0.96875l-0.265625 -0.65625q-0.671875 -1.703125 -1.0 -2.625q-0.3125 -0.921875 -0.40625 -1.671875l-0.21875 0.765625q-0.578125 2.0625 -1.203125 3.84375q-0.3125 0.90625 -0.765625 1.3125q-0.453125 0.390625 -1.171875 0.390625q-0.4375 0 -0.765625 -0.1875q-0.3125 -0.1875 -0.609375 -0.65625q-0.375 -0.625 -0.734375 -1.671875q-0.34375 -1.0625 -0.984375 -3.296875q-0.3125 -0.953125 -0.578125 -2.015625q-0.265625 -1.078125 -0.265625 -1.5q0 -0.515625 0.265625 -0.796875q0.265625 -0.28125 0.765625 -0.28125q0.640625 0 0.90625 0.25q0.265625 0.25 0.484375 0.75q0.125 0.859375 0.53125 2.453125l0.53125 2.25q0.046875 0.265625 0.28125 1.109375l0.1875 0.6875q0.53125 -1.125 0.890625 -2.15625q0.359375 -1.03125 0.796875 -2.546875q0.015625 -0.09375 0.484375 -1.65625q0.296875 -0.5 0.53125 -0.75q0.25 -0.25 0.5 -0.25q0.46875 0 0.8125 0.296875q0.359375 0.296875 0.53125 0.734375q0.28125 0.9375 0.5 1.703125q0.09375 0.3125 0.4375 1.5q0.359375 1.1875 0.640625 2.0q0.28125 0.8125 0.484375 1.15625l0.90625 -2.9375zm14.718964 -1.984375q0.1875 0.328125 0.296875 0.96875q0.125 0.640625 0.125 1.140625q0 0.65625 -0.140625 1.453125q-0.140625 0.78125 -0.265625 1.21875q-1.65625 3.015625 -4.890625 3.015625q-1.203125 0 -2.453125 -0.78125q-1.25 -0.796875 -1.71875 -1.828125q-0.65625 -2.046875 -0.65625 -2.625q0 -0.953125 0.421875 -2.03125q0.421875 -1.078125 1.0625 -1.875q0.4375 -0.546875 1.484375 -0.9375q1.0625 -0.40625 1.921875 -0.40625q1.6875 0 2.84375 0.640625q1.171875 0.625 1.96875 2.046875zm-2.09375 3.859375q0.125 -0.234375 0.125 -1.609375q0 -0.6875 -0.265625 -1.359375q-0.25 -0.671875 -0.71875 -1.15625q-0.046875 -0.046875 -0.265625 -0.15625q-0.21875 -0.109375 -0.59375 -0.21875q-0.375 -0.109375 -0.84375 -0.109375q-1.34375 0 -1.96875 1.09375q-0.625 1.078125 -0.625 2.4375q0 0.21875 0.140625 0.890625q0.140625 0.671875 0.21875 0.859375q0.1875 0.34375 0.765625 0.796875q0.59375 0.4375 1.296875 0.4375q1.078125 0 1.703125 -0.515625q0.640625 -0.515625 1.03125 -1.390625zm4.9263306 -4.578125q-0.625 -0.4375 -0.625 -0.921875q0 -0.328125 0.28125 -0.609375q0.28125 -0.296875 0.859375 -0.296875q0.671875 0 1.203125 0.359375q0.546875 0.34375 0.765625 0.984375q0.5625 -0.640625 1.265625 -1.015625q0.703125 -0.390625 1.453125 -0.390625q0.890625 0 1.609375 0.484375q0.71875 0.46875 0.71875 1.28125q0 0.453125 -0.40625 0.9375q-0.390625 0.484375 -0.796875 0.484375q-0.21875 0 -0.375 -0.109375q-0.15625 -0.109375 -0.375 -0.328125q-0.234375 -0.234375 -0.40625 -0.34375q-0.15625 -0.109375 -0.375 -0.109375q-0.390625 0 -0.734375 0.125q-0.328125 0.109375 -0.453125 0.28125q-0.375 0.59375 -0.5625 1.078125q-0.171875 0.484375 -0.171875 1.03125q0 0.40625 -0.03125 0.65625l-0.015625 1.359375q0 0.3125 0.015625 0.703125q0.03125 0.375 0.046875 0.578125q0.078125 0.640625 0.078125 1.25q0 0.40625 -0.3125 0.71875q-0.3125 0.3125 -0.765625 0.3125q-0.71875 0 -1.0625 -0.28125q-0.328125 -0.28125 -0.328125 -1.015625l-0.03125 -1.546875q-0.015625 -0.453125 -0.015625 -1.296875l0.015625 -1.578125q0.046875 -1.15625 0.046875 -1.875q0 -0.265625 -0.109375 -0.46875q-0.09375 -0.21875 -0.40625 -0.4375zm10.797974 8.515625q-0.484375 0 -0.828125 -0.15625q-0.328125 -0.171875 -0.40625 -0.375q-0.265625 -0.953125 -0.265625 -2.515625q0 -2.875 0.109375 -4.671875q0.09375 -2.140625 0.09375 -4.109375q0 -0.578125 -0.140625 -1.6875q-0.03125 -0.1875 -0.078125 -0.6875q-0.046875 -0.5 -0.046875 -0.9375q0 -0.53125 0.359375 -0.84375q0.375 -0.3125 0.984375 -0.3125q0.484375 0 0.78125 0.3125q0.296875 0.296875 0.296875 0.796875q0 0.765625 0.046875 2.15625q0.046875 1.296875 0.046875 1.953125q0 0.71875 -0.046875 1.90625q-0.046875 0.71875 -0.046875 1.0625q0 1.0625 0.03125 1.75q0.875 -0.890625 2.3125 -2.078125q1.453125 -1.203125 2.234375 -1.6875q0.84375 -0.5 1.109375 -0.5q0.5 0 0.859375 0.21875q0.359375 0.203125 0.359375 0.609375q0 0.421875 -0.125 0.65625q-0.109375 0.234375 -0.421875 0.484375l-2.71875 1.984375q0.421875 0.171875 0.78125 0.75q0.375 0.578125 0.90625 1.5625q0.59375 1.125 0.984375 1.671875q0.40625 0.546875 0.8125 0.546875l0.609375 -0.015625q0.15625 0 0.28125 0.1875q0.140625 0.1875 0.140625 0.5625q0 0.546875 -0.546875 0.890625q-0.53125 0.328125 -1.203125 0.328125q-0.9375 0 -1.65625 -0.734375q-0.71875 -0.734375 -1.359375 -1.984375l-0.53125 -1.046875q-0.34375 -0.671875 -0.53125 -0.953125q-0.171875 -0.296875 -0.40625 -0.390625l-1.921875 1.53125l0.09375 2.609375q0 0.625 -0.328125 0.890625q-0.3125 0.265625 -0.625 0.265625z" fill-rule="nonzero"/></g></svg>