<svg version="1.1" viewBox="0.0 0.0 535.0 150.0" fill="none" stroke="none" stroke-linecap="square" stroke-miterlimit="10" xmlns:xlink="http://www.w3.org/1999/xlink" xmlns="http://www.w3.org/2000/svg">
  <mask id="dollar">
    <rect fill="#ffffff" x="0" y="0" width="960" height="540"/>
    <path fill="#000000" d="m67.461006 36.395115l15.53125 0l0 14.546875l-29.40625 0q-1.53125 0 -2.59375 1.03125q-1.0625 1.03125 -1.0625 2.484375q0 1.53125 1.0625 2.59375q1.0625 1.0625 2.59375 1.0625l15.140625 0q3.71875 0 7.0 1.265625q3.28125 1.25 5.734375 3.515625q2.46875 2.2499962 3.890625 5.374996q1.4375 3.125 1.4375 6.84375q0 3.78125 -1.4375 7.109375q-1.421875 3.3125 -3.890625 5.734375q-2.453125 2.421875 -5.734375 3.859375q-3.28125 1.421875 -7.0 1.421875l-1.265625 0l0 20.390625l-12.21875 0l0 -20.390625l-19.71875 0l0 -14.40625l33.203125 0q1.390625 0 2.453125 -1.09375q1.0625 -1.09375 1.0625 -2.625q0 -1.53125 -1.0625 -1.953125q-1.0625 -0.4375 -2.453125 -0.4375l-15.140625 0q-3.796875 0 -7.078125 -1.421875q-3.28125 -1.4375 -5.71875 -3.921875q-2.421875 -2.5 -3.84375 -5.812496q-1.421875 -3.328125 -1.421875 -7.109375q0 -3.71875 1.421875 -7.0q1.421875 -3.296875 3.84375 -5.75q2.4375 -2.453125 5.71875 -3.875q3.28125 -1.4375 7.078125 -1.4375l1.65625 0l0 -18.000002l12.21875 0l0 18.000002z" fill-rule="nonzero"/>
  </mask>
  <g mask="url(#dollar)">
    <path fill="#434343" d="m17.146982 21.664042l72.909744 0l26.617813 44.92914l-26.617813 44.92913l-72.909744 0z" fill-rule="evenodd"/>
    <path fill="#434343" d="m200.03937 83.80028q0 5.5625 -2.125 10.4375q-2.125 4.875 -5.78125 8.53125q-3.65625 3.65625 -8.53125 5.78125q-4.875 2.125 -10.4375 2.125l-44.8125 0l0 -89.625l44.8125 0q5.5625 0 10.4375 2.125q4.875 2.125 8.53125 5.78125q3.65625 3.656252 5.78125 8.531252q2.125 4.875 2.125 10.4375q0 2.5 -0.6875 5.125q-0.6875 2.625 -1.9375 5.0625q-1.25 2.4375 -3.0 4.4375q-1.75 1.9999962 -3.875 3.3124962q2.1875 1.1875 3.9375 3.21875q1.75 2.03125 3.0 4.46875q1.25 2.4375 1.90625 5.09375q0.65625 2.65625 0.65625 5.15625zm-53.75 8.9375l26.875 0q1.875 0 3.5 -0.6875q1.625 -0.6875 2.84375 -1.90625q1.21875 -1.21875 1.90625 -2.84375q0.6875 -1.625 0.6875 -3.5q0 -1.875 -0.6875 -3.5q-0.6875 -1.625 -1.90625 -2.84375q-1.21875 -1.21875 -2.84375 -1.90625q-1.625 -0.6875 -3.5 -0.6875l-26.875 0l0 17.875zm0 -35.812496l26.875 0q1.875 0 3.5 -0.6875q1.625 -0.6875 2.84375 -1.90625q1.21875 -1.21875 1.90625 -2.875q0.6875 -1.65625 0.6875 -3.53125q0 -1.875 -0.6875 -3.5q-0.6875 -1.625 -1.90625 -2.84375q-1.21875 -1.21875 -2.84375 -1.90625q-1.625 -0.6875 -3.5 -0.6875l-26.875 0l0 17.9375zm130.3125 53.749996l-4.125 0l-6.625 -9.1875q-2.4375 2.1875 -5.15625 4.09375q-2.71875 1.90625 -5.71875 3.3125q-3.0 1.40625 -6.15625 2.21875q-3.15625 0.8125 -6.40625 0.8125q-7.0625 0 -13.28125 -2.375q-6.21875 -2.375 -10.875 -6.90625q-4.65625 -4.53125 -7.34375 -11.09375q-2.6875 -6.5625 -2.6875 -14.9375q0 -7.8125 2.6875 -14.343746q2.6875 -6.53125 7.34375 -11.21875q4.65625 -4.6875 10.875 -7.28125q6.21875 -2.59375 13.28125 -2.59375q3.25 0 6.4375 0.8125q3.1875 0.8125 6.1875 2.25q3.0 1.4375 5.71875 3.375q2.71875 1.9375 5.09375 4.1875l6.625 -7.9375l4.125 0l0 66.8125zm-17.1875 -34.0625q0 -3.5 -1.34375 -6.78125q-1.34375 -3.28125 -3.65625 -5.8125q-2.3125 -2.5312462 -5.40625 -4.062496q-3.09375 -1.53125 -6.59375 -1.53125q-3.5 0 -6.59375 1.1875q-3.09375 1.1875 -5.375 3.5q-2.28125 2.3124962 -3.59375 5.718746q-1.3125 3.40625 -1.3125 7.78125q0 4.375 1.3125 7.78125q1.3125 3.40625 3.59375 5.71875q2.28125 2.3125 5.375 3.5q3.09375 1.1875 6.59375 1.1875q3.5 0 6.59375 -1.53125q3.09375 -1.53125 5.40625 -4.0625q2.3125 -2.53125 3.65625 -5.8125q1.34375 -3.28125 1.34375 -6.78125zm66.9375 34.0625l-39.0 0l0 -17.0l39.0 0q1.75 0 3.0 -1.25q1.25 -1.25 1.25 -3.0q0 -1.8125 -1.25 -2.375q-1.25 -0.5625 -3.0 -0.5625l-17.75 0q-4.4375 0 -8.3125 -1.6875q-3.875 -1.6875 -6.75 -4.59375q-2.875 -2.90625 -4.53125 -6.78125q-1.65625 -3.875 -1.65625 -8.3125q0 -4.437496 1.65625 -8.312496q1.65625 -3.875 4.53125 -6.75q2.875 -2.875 6.75 -4.53125q3.875 -1.65625 8.3125 -1.65625l34.5625 0l0 17.0l-34.5625 0q-1.75 0 -3.0 1.25q-1.25 1.25 -1.25 2.9999962q0 1.8125 1.25 3.09375q1.25 1.28125 3.0 1.28125l17.75 0q4.375 0 8.25 1.46875q3.875 1.46875 6.75 4.09375q2.875 2.625 4.5625 6.3125q1.6875 3.6875 1.6875 8.0625q0 4.4375 -1.6875 8.28125q-1.6875 3.84375 -4.5625 6.75q-2.875 2.90625 -6.75 4.5625q-3.875 1.65625 -8.25 1.65625zm47.375 0l-17.0625 0l0 -93.5625l17.0625 0l0 29.562502q3.0625 -2.3125 6.3125 -3.28125q3.25 -0.96875 6.625 -0.96875q6.1875 0 11.625 2.34375q5.4375 2.34375 9.46875 6.4375q4.03125 4.09375 6.375 9.5625q2.34375 5.468746 2.34375 11.656246l0 38.25l-17.1875 0l0 -38.25l0.125 0q0 -2.625 -1.0 -4.96875q-1.0 -2.34375 -2.75 -4.093746q-1.75 -1.75 -4.0625 -2.75q-2.3125 -1.0 -4.9375 -1.0q-2.6875 0 -5.0625 1.0q-2.375 1.0 -4.125 2.75q-1.75 1.7499962 -2.75 4.093746q-1.0 2.34375 -1.0 4.96875l0 38.25zm72.0625 0l-17.1875 0l0 -93.5625l17.1875 0l0 93.5625zm29.125 25.5l0 -17.1875l9.5 0.125q2.5 0 4.8125 -0.8125q2.3125 -0.8125 4.28125 -2.25q1.96875 -1.4375 3.46875 -3.40625q1.5 -1.96875 2.4375 -4.28125q-2.8125 1.1875 -5.71875 2.375q-2.90625 1.1875 -5.84375 1.1875q-6.1875 0 -11.625 -2.1875q-5.4375 -2.1875 -9.53125 -6.21875q-4.09375 -4.03125 -6.4375 -9.8125q-2.34375 -5.78125 -2.34375 -12.96875l0 -36.999996l17.0 0l0 36.999996q0 3.5625 1.03125 6.21875q1.03125 2.65625 2.78125 4.4375q1.75 1.78125 4.09375 2.65625q2.34375 0.875 5.03125 0.875q2.625 0 4.96875 -1.21875q2.34375 -1.21875 4.09375 -3.21875q1.75 -2.0 2.75 -4.53125q1.0 -2.53125 1.0 -5.21875l0 -36.999996l17.1875 0l0 58.499996q-0.0625 7.0625 -2.75 13.25q-2.6875 6.1875 -7.34375 10.8125q-4.65625 4.625 -10.84375 7.3125q-6.1875 2.6875 -13.25 2.6875l-8.75 -0.125z" fill-rule="nonzero"/>
  </g>
</svg>