<svg version="1.1" viewBox="0.0 0.0 960.0 340.0" fill="none" stroke="none" stroke-linecap="square" stroke-miterlimit="10" xmlns:xlink="http://www.w3.org/1999/xlink" xmlns="http://www.w3.org/2000/svg"><clipPath id="p.0"><path d="m0 0l960.0 0l0 540.0l-960.0 0l0 -540.0z" clip-rule="nonzero"/></clipPath><g clip-path="url(#p.0)"><path fill="none" d="m0 0l960.0 0l0 540.0l-960.0 0z" fill-rule="evenodd"/><path fill="#000000" fill-opacity="0.0" d="m0 0l960.0 0l0 516.8189l-960.0 0z" fill-rule="evenodd"/><path fill="#434343" d="m176.0968 159.40625q-14.0 2.390625 -48.0 5.59375l-1.203125 0q-4.59375 0 -7.5 -2.59375q-2.890625 -2.609375 -3.296875 -6.203125l-0.203125 -2.40625q0 -5.203125 3.40625 -8.09375q3.40625 -2.90625 11.796875 -3.703125l21.0 -2.0l11.0 -1.40625l12.203125 -1.59375l1.203125 0q4.796875 0 7.796875 2.90625q3.0 2.890625 3.40625 7.09375l0 1.0q0 4.203125 -3.109375 7.203125q-3.09375 3.0 -8.5 4.203125zm92.80002 0q-14.0 2.390625 -48.0 5.59375l-1.203125 0q-4.59375 0 -7.5 -2.59375q-2.890625 -2.609375 -3.296875 -6.203125l-0.203125 -2.40625q0 -5.203125 3.40625 -8.09375q3.40625 -2.90625 11.796875 -3.703125l21.0 -2.0l11.0 -1.40625l12.203125 -1.59375l1.203125 0q4.796875 0 7.796875 2.90625q3.0 2.890625 3.40625 7.09375l0 1.0q0 4.203125 -3.109375 7.203125q-3.09375 3.0 -8.5 4.203125zm46.409393 32.390625q-1.203125 2.796875 -1.8125 5.0q-1.796875 4.609375 -3.203125 6.703125q-1.390625 2.09375 -4.390625 2.09375l-5.59375 0.203125q-5.0 0 -8.0 -2.109375q-3.0 -2.09375 -3.40625 -8.484375q0.203125 -0.203125 2.0 -4.5q1.796875 -4.296875 3.59375 -11.703125q2.40625 -9.796875 4.796875 -19.390625q2.40625 -9.609375 4.609375 -18.609375q3.0 -11.796875 8.796875 -35.296875q5.796875 -23.5 9.0 -37.296875q-0.203125 -3.0 -0.40625 -8.296875q-0.1875 -5.3125 -0.1875 -8.3125q0.59375 -2.59375 4.484375 -4.1875q3.90625 -1.609375 7.109375 -1.609375q5.0 0 10.390625 3.40625q5.40625 3.390625 5.609375 8.1875l-15.0 59.203125q5.40625 -6.203125 13.09375 -8.703125q7.703125 -2.5 14.3125 -2.5q9.390625 0 16.890625 5.40625q7.5 5.40625 11.796875 14.3125q4.3125 8.890625 4.3125 18.6875q0 14.40625 -6.8125 28.3125q-6.796875 13.890625 -19.796875 22.796875q-13.0 8.890625 -30.390625 8.890625q-5.0 0 -12.3125 -3.59375q-7.296875 -3.609375 -9.484375 -8.609375zm4.796875 -16.59375q2.59375 4.59375 7.796875 8.203125q5.203125 3.59375 9.40625 3.59375q9.390625 0 17.1875 -8.296875q7.8125 -8.296875 12.40625 -19.796875q4.59375 -11.5 4.59375 -20.703125q0 -6.40625 -3.40625 -10.59375q-3.390625 -4.203125 -9.984375 -4.203125q-5.796875 0 -12.40625 2.59375q-6.59375 2.59375 -11.703125 7.5q-5.09375 4.90625 -6.890625 11.296875l-7.0 30.40625zm159.00317 15.390625q0.390625 5.203125 1.390625 9.40625q-0.390625 1.203125 -3.5 2.390625q-3.09375 1.203125 -5.296875 1.203125q-7.203125 0 -10.3125 -2.09375q-3.09375 -2.09375 -3.09375 -6.296875q0 -4.0 0.8125 -8.0q-4.40625 6.0 -12.90625 9.90625q-8.5 3.890625 -13.703125 3.890625q-13.390625 0 -22.296875 -7.796875q-8.90625 -7.796875 -8.90625 -25.0q0 -16.203125 7.703125 -30.5q7.703125 -14.296875 21.296875 -23.0q13.609375 -8.703125 30.203125 -8.703125q3.203125 0 8.40625 1.703125q5.203125 1.703125 10.5 5.796875q5.296875 4.09375 8.890625 10.5q1.609375 0 3.796875 1.609375q2.203125 1.59375 2.203125 3.1875q0 1.796875 -0.59375 3.609375l-14.59375 58.1875zm-9.0 -56.0q-1.203125 -4.390625 -4.703125 -7.390625q-3.5 -3.0 -6.296875 -3.0q-9.203125 0 -17.3125 6.5q-8.09375 6.5 -13.09375 16.109375q-5.0 9.59375 -5.0 18.1875q0 8.40625 2.0 13.8125q2.0 5.390625 7.796875 5.390625q5.0 0 11.5 -3.0q6.5 -3.0 11.59375 -8.09375q5.109375 -5.109375 6.703125 -10.703125l6.8125 -27.8125zm65.993774 0.609375q0 4.0 3.59375 6.40625q3.609375 2.390625 11.40625 5.390625q8.40625 3.40625 13.59375 6.40625q5.203125 3.0 9.09375 8.703125q3.90625 5.6875 3.90625 14.484375q0 14.40625 -11.90625 22.109375q-11.890625 7.703125 -31.890625 7.703125q-9.796875 0 -18.296875 -3.109375q-8.5 -3.09375 -13.5 -7.6875q-5.0 -4.609375 -5.0 -9.203125q0 -4.8125 4.203125 -7.90625q4.203125 -3.09375 11.796875 -4.09375q0.203125 4.0 4.203125 7.5q4.0 3.5 9.5 5.59375q5.5 2.09375 9.5 2.09375q6.796875 0 12.390625 -3.6875q5.609375 -3.703125 5.609375 -8.703125q0 -9.203125 -17.796875 -14.609375q-11.40625 -3.390625 -17.515625 -10.78125q-6.09375 -7.40625 -6.09375 -15.609375q0 -14.40625 11.890625 -22.203125q11.90625 -7.796875 31.90625 -7.796875q9.8125 0 17.5 3.0q7.703125 3.0 11.90625 7.703125q4.203125 4.6875 4.203125 9.296875q0 4.796875 -4.203125 7.90625q-4.203125 3.09375 -11.796875 4.09375q-0.203125 -4.0 -3.5 -7.5q-3.296875 -3.5 -7.90625 -5.59375q-4.59375 -2.109375 -8.59375 -2.109375q-6.796875 0 -12.5 3.609375q-5.703125 3.59375 -5.703125 8.59375zm85.203125 17.203125q11.0 -24.8125 22.1875 -35.40625q11.203125 -10.59375 20.015625 -10.59375q12.390625 0 19.6875 6.203125q7.3125 6.1875 7.5 14.984375l-16.59375 66.203125q-1.59375 6.203125 -3.40625 9.09375q-1.796875 2.90625 -4.0 3.609375q-2.1875 0.703125 -6.1875 0.703125q-4.8125 0 -7.90625 -2.3125q-3.09375 -2.296875 -3.09375 -5.890625q0 -1.203125 0.1875 -1.796875q2.203125 -9.796875 10.8125 -45.796875q5.59375 -21.8125 5.59375 -23.40625q0 -2.796875 -2.796875 -2.796875q-2.203125 0 -13.40625 11.796875q-11.203125 11.796875 -21.90625 26.40625q-10.6875 14.59375 -13.6875 24.796875q-0.203125 0.796875 -0.609375 2.296875q-0.390625 1.5 -0.59375 2.296875q-0.796875 3.203125 -1.796875 4.90625q-1.0 1.703125 -3.703125 2.796875q-2.703125 1.09375 -7.90625 1.09375q-5.796875 0 -8.5 -2.1875q-2.6875 -2.203125 -2.890625 -7.0q2.796875 -11.0 3.796875 -16.40625l31.203125 -124.0q0.796875 -2.796875 4.296875 -4.6875q3.5 -1.90625 7.09375 -1.90625q6.0 0 8.59375 3.203125q2.609375 3.1875 3.21875 8.796875l-25.203125 95.0zm126.79999 -60.203125q-22.609375 95.0 -26.609375 108.59375q-0.390625 1.203125 -4.09375 3.09375q-3.703125 1.90625 -5.09375 1.90625q-5.609375 0 -10.8125 -2.796875q-5.1875 -2.796875 -5.59375 -9.0q0.203125 -0.40625 2.0 -4.203125q1.796875 -3.796875 3.59375 -10.796875q4.609375 -17.203125 10.5 -40.796875q5.90625 -23.609375 7.90625 -31.609375l9.40625 -38.1875q-0.203125 -1.609375 -0.203125 -16.609375q0.59375 -2.59375 4.484375 -4.1875q3.90625 -1.609375 7.109375 -1.609375q5.0 0 10.296875 3.40625q5.3125 3.390625 5.5 8.1875l-8.390625 34.609375zm34.390625 80.390625q-0.59375 2.40625 -0.59375 4.8125q0 4.1875 2.203125 6.796875q2.203125 2.59375 7.0 2.59375q6.203125 0 13.390625 -3.59375q7.203125 -3.609375 12.203125 -8.796875l3.796875 -15.8125q3.8125 -16.0 8.8125 -34.59375q2.1875 -8.0 5.6875 -13.09375q3.5 -5.109375 11.109375 -5.109375q10.59375 0 10.59375 6.40625q0 1.0 -0.5 2.5q-0.5 1.5 -0.703125 2.5q-7.0 29.59375 -7.796875 33.0q-9.390625 42.0 -14.203125 58.390625q-7.0 24.203125 -20.0 34.40625q-13.0 10.203125 -36.1875 10.203125q-14.0 0 -18.8125 -4.109375q-4.796875 -4.09375 -4.796875 -10.09375q0 -3.59375 2.890625 -6.203125q2.90625 -2.59375 6.515625 -2.59375q3.0 0 4.6875 0.6875q1.703125 0.703125 3.703125 2.109375q2.40625 1.796875 4.796875 2.6875q2.40625 0.90625 7.015625 0.90625q3.390625 0 8.1875 -2.796875q4.8125 -2.796875 9.3125 -8.90625q4.5 -6.09375 7.09375 -14.890625l5.0 -17.40625q-6.796875 6.40625 -13.203125 9.5q-6.390625 3.109375 -14.390625 3.109375q-13.203125 0 -20.3125 -8.203125q-7.09375 -8.203125 -7.09375 -21.796875q0 -4.0 1.203125 -8.796875l12.796875 -50.8125l-5.203125 -6.0q-0.59375 -0.59375 -0.59375 -1.390625q0 -2.0 4.390625 -3.296875q4.40625 -1.3125 12.203125 -1.3125q12.796875 0 14.0 12.203125l-14.203125 56.796875z" fill-rule="nonzero"/><path fill="#999999" d="m49.430786 290.46875q4.875 0.59375 7.234375 3.09375q2.359375 2.5 2.359375 6.171875q0 3.671875 -2.703125 6.9375q-2.6875 3.265625 -6.890625 5.0625q-1.859375 0.734375 -4.890625 1.078125q-3.03125 0.328125 -6.234375 0.328125q-5.34375 0 -10.9375 -1.0q-1.0 -0.203125 -2.109375 -1.0q-1.09375 -0.8125 -1.09375 -2.34375q-0.0625 -6.125 -0.46875 -17.0625l-0.0625 -3.65625q-0.265625 -8.546875 -0.265625 -13.40625q0 -0.859375 1.03125 -2.03125q1.03125 -1.171875 2.5 -1.296875q0.875 0 1.671875 -0.078125q7.53125 -0.71875 10.0625 -0.71875q5.0 0 8.828125 0.96875q3.84375 0.953125 6.375 3.484375q0.921875 1.078125 1.515625 2.71875q0.609375 1.625 0.609375 3.15625q0.0625 3.265625 -1.703125 6.0q-1.765625 2.734375 -4.828125 3.59375zm-10.390625 -14.265625q-2.265625 0 -4.703125 0.265625q-2.4375 0.265625 -4.09375 0.671875l0.390625 12.59375l2.40625 -0.0625q5.796875 -0.59375 8.53125 -1.0q1.734375 -0.40625 3.390625 -1.5625q1.671875 -1.171875 2.765625 -2.46875q1.109375 -1.296875 1.109375 -1.96875q0 -1.0 -0.40625 -2.03125q-0.390625 -1.03125 -0.859375 -1.5q-1.796875 -1.734375 -3.671875 -2.328125q-1.859375 -0.609375 -4.859375 -0.609375zm-8.203125 31.0625q3.40625 0.46875 6.46875 0.46875q6.734375 0 10.625 -1.765625q3.90625 -1.765625 3.90625 -6.765625q0 -2.0 -3.0 -3.328125q-3.0 -1.34375 -6.46875 -1.34375q-2.328125 0 -5.9375 0.53125q-2.859375 0.40625 -5.59375 0.546875q0.125 4.0 0.125 5.0625q0 2.0625 -0.0625 3.125l-0.0625 3.46875zm64.65375 2.53125q0 1.46875 -1.5625 2.46875q-1.5625 1.0 -2.90625 1.0q-2.53125 0 -4.03125 -0.625q-1.5 -0.640625 -2.765625 -2.375q-1.734375 1.53125 -4.734375 2.296875q-3.0 0.765625 -5.53125 0.765625q-4.125 0 -6.796875 -2.21875q-2.671875 -2.234375 -2.671875 -6.578125q0 -1.859375 1.0 -3.421875q1.0 -1.578125 2.734375 -2.78125q1.9375 -1.265625 4.40625 -1.953125q2.46875 -0.703125 5.125 -0.703125q1.40625 0 3.328125 0.53125q1.9375 0.53125 3.015625 1.125l0 -1.0625q0 -3.59375 -1.734375 -4.953125q-1.734375 -1.375 -5.609375 -1.375q-1.125 0 -2.234375 0.46875q-1.09375 0.46875 -2.5 1.265625q-1.859375 1.0 -3.53125 1.0q-0.59375 0 -1.125 -0.828125q-0.53125 -0.84375 -0.53125 -1.5q0 -1.9375 1.828125 -3.328125q1.828125 -1.40625 4.359375 -2.109375q2.546875 -0.703125 4.546875 -0.703125q2.0 0 4.59375 0.765625q2.59375 0.765625 4.265625 2.109375q2.0 1.71875 3.09375 4.03125q1.109375 2.296875 1.109375 5.03125q0 0.859375 -0.140625 2.59375q-0.125 1.875 -0.125 3.203125q0 0.59375 -0.140625 1.796875q-0.125 1.46875 -0.125 2.328125q0 0.8125 0.59375 1.375q0.59375 0.5625 1.40625 0.5625l1.859375 -0.0625q0.734375 0 1.125 0.53125q0.40625 0.53125 0.40625 1.328125zm-21.46875 -1.734375q2.875 0 4.796875 -0.59375q1.9375 -0.59375 4.671875 -2.203125q0.265625 -1.125 0.34375 -3.0q-3.671875 -1.734375 -6.078125 -1.734375q-2.734375 0 -4.875 1.0q-2.125 1.0 -2.125 3.53125q0 1.265625 1.0625 2.140625q1.078125 0.859375 2.203125 0.859375zm44.540466 -10.0625q0.53125 0.328125 2.09375 1.234375q1.5625 0.90625 2.09375 2.109375q0.53125 1.1875 0.53125 3.328125q0 2.390625 -1.40625 4.234375q-1.390625 1.828125 -3.578125 2.828125q-1.609375 0.734375 -3.90625 1.140625q-2.296875 0.390625 -3.640625 0.390625q-1.328125 0 -3.4375 -0.390625q-2.09375 -0.40625 -2.890625 -0.734375q-2.0625 -1.203125 -3.5625 -2.9375q-1.5 -1.734375 -1.5 -3.53125q0 -1.34375 0.859375 -2.109375q0.875 -0.765625 2.265625 -0.765625q0.671875 0 1.40625 0.5q0.734375 0.5 1.0 1.03125q0.734375 1.734375 2.46875 2.609375q1.734375 0.859375 3.53125 0.859375q2.328125 0 4.328125 -0.765625q2.0 -0.765625 2.0 -2.09375q0 -0.609375 -0.296875 -0.96875q-0.296875 -0.375 -0.828125 -0.765625q-0.9375 -0.671875 -2.8125 -1.09375q-1.859375 -0.4375 -2.390625 -0.578125q-2.734375 -0.59375 -5.328125 -1.796875q-2.609375 -1.265625 -4.140625 -3.0q-1.53125 -1.734375 -1.53125 -4.46875q0 -1.796875 1.328125 -3.765625q1.34375 -1.96875 3.0 -2.765625q1.203125 -0.46875 4.03125 -1.0q2.84375 -0.53125 3.84375 -0.53125q1.53125 0 3.328125 0.296875q1.796875 0.296875 2.734375 0.96875q1.796875 1.0625 2.921875 2.234375q1.140625 1.171875 1.140625 2.640625q0 0.71875 -0.328125 1.5625q-0.328125 0.828125 -0.796875 1.03125q-1.0 0.46875 -2.34375 0.46875q-0.59375 0 -0.96875 -0.328125q-0.359375 -0.34375 -0.953125 -1.078125q-0.734375 -1.125 -1.40625 -1.328125q-0.796875 -0.203125 -2.328125 -0.5q-1.53125 -0.296875 -2.0625 -0.296875q-1.546875 0 -3.1875 0.875q-1.625 0.859375 -1.625 1.984375q0 0.609375 0.5 0.9375q0.5 0.328125 1.0625 0.59375q0.578125 0.265625 0.78125 0.34375q1.390625 0.65625 3.09375 1.125q1.703125 0.46875 2.09375 0.59375q3.609375 0.875 4.8125 1.671875zm38.19333 15.203125q-5.0 0 -6.734375 -3.875q-0.875 -1.921875 -1.140625 -5.015625q-0.265625 -3.109375 -0.265625 -7.3125l0 -2.0625q0 -4.796875 -3.203125 -4.796875q-1.859375 0 -3.734375 1.90625q-1.859375 1.890625 -3.09375 5.0q-1.234375 3.09375 -1.234375 6.421875q0 2.203125 0.203125 4.0q0.140625 2.265625 0.140625 3.46875q0 2.265625 -3.140625 2.265625q-1.53125 0 -2.703125 -0.671875q-1.15625 -0.671875 -1.15625 -1.734375q0.265625 -3.390625 0.265625 -8.390625l-0.078125 -8.796875q0 -2.140625 -0.328125 -15.796875l-0.203125 -6.140625q0 -1.46875 1.328125 -2.5625q1.34375 -1.109375 3.015625 -1.109375q1.453125 0 2.125 0.671875q0.671875 0.671875 0.671875 2.0625q0 1.734375 -0.078125 4.046875q-0.0625 2.296875 -0.125 3.484375q-0.203125 3.40625 -0.203125 6.8125q0 3.328125 -0.125 5.265625q2.0 -2.9375 4.5625 -4.375q2.5625 -1.4375 6.03125 -1.4375q2.53125 0 4.6875 2.234375q2.171875 2.234375 2.640625 5.109375q0.140625 1.46875 0.140625 4.328125l-0.078125 4.859375q0 1.140625 0.140625 3.53125q0.0625 1.140625 0.765625 2.40625q0.703125 1.265625 1.640625 1.875q0.859375 0.53125 1.125 1.0625q0.265625 0.53125 0.265625 1.203125q0 0.65625 -0.609375 1.359375q-0.59375 0.703125 -1.515625 0.703125zm55.652832 -36.0q1.0 1.203125 1.390625 1.9375q0.40625 0.734375 0.40625 1.390625q0 0.8125 -1.03125 1.875q-1.03125 1.0625 -2.03125 1.0625q-1.328125 0 -2.140625 -0.390625q-0.796875 -0.40625 -1.328125 -1.265625q-1.265625 -2.0 -2.9375 -3.5625q-1.65625 -1.578125 -4.453125 -1.578125q-2.734375 0 -6.140625 1.265625q-3.390625 1.265625 -5.0 3.140625q-3.59375 4.390625 -3.59375 11.65625q0 5.796875 3.59375 9.9375q3.796875 4.265625 9.59375 4.265625q2.671875 0 5.828125 -0.96875q3.171875 -0.96875 5.046875 -3.171875l-0.0625 0q1.1875 -1.265625 2.984375 -1.265625q1.078125 0 2.03125 0.9375q0.96875 0.9375 0.96875 1.859375q0 1.0 -0.296875 1.78125q-0.296875 0.765625 -1.09375 1.6875q-2.734375 3.0 -6.96875 4.171875q-4.234375 1.171875 -9.625 1.171875q-4.46875 0 -8.578125 -2.125q-4.09375 -2.140625 -6.765625 -5.421875q-1.328125 -1.921875 -2.5625 -5.546875q-1.234375 -3.640625 -1.234375 -5.90625q0 -5.796875 1.765625 -11.03125q1.765625 -5.234375 5.296875 -8.375q2.34375 -2.125 6.734375 -3.1875q4.40625 -1.078125 8.078125 -1.078125q2.921875 0 5.015625 0.84375q2.109375 0.828125 3.640625 2.203125q1.53125 1.359375 3.46875 3.6875zm35.32878 14.40625q0.53125 0.921875 0.859375 2.6875q0.34375 1.765625 0.34375 3.171875q0 1.796875 -0.40625 4.0q-0.390625 2.203125 -0.734375 3.40625q-4.59375 8.390625 -13.59375 8.390625q-3.328125 0 -6.796875 -2.1875q-3.46875 -2.203125 -4.796875 -5.078125q-1.8125 -5.671875 -1.8125 -7.265625q0 -2.671875 1.171875 -5.671875q1.171875 -3.0 2.96875 -5.1875q1.203125 -1.53125 4.125 -2.625q2.9375 -1.109375 5.34375 -1.109375q4.65625 0 7.890625 1.765625q3.234375 1.765625 5.4375 5.703125zm-5.796875 10.71875q0.328125 -0.65625 0.328125 -4.453125q0 -1.9375 -0.703125 -3.796875q-0.6875 -1.875 -2.03125 -3.203125q-0.125 -0.140625 -0.734375 -0.4375q-0.59375 -0.296875 -1.625 -0.59375q-1.03125 -0.3125 -2.375 -0.3125q-3.734375 0 -5.46875 3.0q-1.71875 3.0 -1.71875 6.796875q0 0.609375 0.390625 2.484375q0.40625 1.859375 0.609375 2.390625q0.53125 0.9375 2.15625 2.171875q1.640625 1.21875 3.5625 1.21875q3.0 0 4.765625 -1.421875q1.78125 -1.4375 2.84375 -3.84375zm53.72081 -1.0625l0.265625 -5.125q0 -2.796875 -0.640625 -4.125q-0.625 -1.34375 -2.828125 -1.34375q-4.1875 0 -6.328125 4.703125q-2.140625 4.6875 -2.140625 13.6875q0 0.40625 0.03125 1.640625q0.046875 1.234375 -0.390625 1.90625q-0.4375 0.65625 -1.5 0.65625q-2.671875 0 -3.609375 -1.46875q-0.921875 -1.46875 -0.921875 -4.328125q0 -1.46875 0.40625 -6.0q0.328125 -3.203125 0.328125 -4.46875q0 -3.328125 -1.0 -4.859375q-1.0 -1.53125 -3.46875 -1.53125q-2.859375 0 -4.734375 2.859375q-1.859375 2.859375 -2.734375 7.09375q-0.859375 4.234375 -0.859375 8.375q0 1.921875 -0.640625 3.125q-0.625 1.203125 -2.359375 1.203125q-1.265625 0 -2.53125 -0.703125q-1.265625 -0.703125 -1.265625 -1.890625q0 -1.265625 0.265625 -2.53125q0.328125 -2.078125 0.53125 -6.078125q0.203125 -4.0 0.203125 -7.53125q0 -1.59375 -0.765625 -3.09375q-0.765625 -1.5 -1.84375 -1.5q-0.265625 0 -0.96875 0.265625q-0.68751526 0.265625 -1.0312653 0.265625q-0.859375 0 -1.5625 -0.796875q-0.703125 -0.796875 -0.703125 -1.328125q0 -1.671875 1.625 -2.828125q1.6406403 -1.171875 3.4375153 -1.171875q2.46875 0 4.296875 1.671875q1.84375 1.65625 2.78125 4.453125q1.59375 -2.859375 3.75 -4.484375q2.171875 -1.640625 5.3125 -1.640625q5.734375 0 8.328125 5.125q1.53125 -2.46875 4.765625 -3.796875q3.234375 -1.328125 6.375 -1.328125q2.265625 0 4.328125 1.375q2.0625 1.359375 3.296875 3.59375q1.234375 2.21875 1.234375 4.625q0 1.53125 -0.328125 6.734375q-0.078125 0.859375 -0.140625 1.890625q-0.0625 1.03125 -0.0625 2.171875q0 1.40625 0.6875 2.28125q0.703125 0.859375 1.84375 1.046875q2.265625 0.53125 2.265625 1.875q0 1.53125 -1.40625 2.4375q-1.390625 0.890625 -3.125 0.890625q-3.265625 0 -4.96875 -1.890625q-1.703125 -1.90625 -1.703125 -5.5l0.203125 -4.609375zm57.85901 9.40625q-1.0 -1.875 -1.265625 -4.171875q-0.265625 -2.296875 -0.265625 -6.359375q0 -3.875 -1.078125 -6.734375q-1.0625 -2.875 -4.390625 -2.875q-1.265625 0 -2.5 0.765625q-1.234375 0.765625 -1.828125 1.90625q-0.9375 1.796875 -1.28125 3.90625q-0.328125 2.09375 -0.328125 4.828125q0 1.734375 0.203125 3.53125q0 0.53125 0.09375 1.703125q0.109375 1.15625 0.109375 2.09375q0 4.0 -2.796875 4.0q-3.671875 0 -3.875 -3.859375q0 -2.734375 0.078125 -2.9375l0 -2.875q0 -2.390625 -0.203125 -4.65625q-0.203125 -2.265625 -0.46875 -3.40625q-0.59375 -2.1875 -1.5625 -3.390625q-0.96875 -1.203125 -3.03125 -1.203125q-2.9375 0 -4.734375 2.53125q-1.265625 2.0 -1.671875 4.859375q-0.40625 3.671875 -0.578125 5.78125q-0.15625 2.09375 -0.15625 4.828125q0 1.921875 -0.640625 3.125q-0.625 1.203125 -2.359375 1.203125q-1.265625 0 -2.640625 -0.703125q-1.359375 -0.703125 -1.359375 -1.890625q0 -1.265625 0.265625 -2.53125q0.609375 -3.8125 0.609375 -13.609375q0 -1.59375 -0.765625 -3.09375q-0.765625 -1.5 -1.84375 -1.5q-0.265625 0 -0.96875 0.265625q-0.6875 0.265625 -1.03125 0.265625q-0.859375 0 -1.5625 -0.796875q-0.703125 -0.796875 -0.703125 -1.328125q0 -1.671875 1.625 -2.828125q1.640625 -1.171875 3.4375 -1.171875q2.46875 0 4.203125 1.53125q1.734375 1.53125 2.671875 4.265625q1.53125 -2.671875 4.125 -4.296875q2.609375 -1.640625 5.8125 -1.640625q1.984375 0 3.21875 0.5q1.234375 0.5 2.03125 1.40625q0.8125 0.890625 2.078125 2.6875q1.65625 -2.125 4.28125 -3.328125q2.640625 -1.203125 5.453125 -1.203125q3.328125 0 5.984375 2.703125q2.671875 2.703125 3.609375 6.234375q0.46875 1.796875 0.46875 6.9375l0.265625 3.859375q0.328125 3.46875 2.265625 4.203125q2.265625 0.671875 2.265625 1.390625q0 1.609375 -0.796875 2.34375q-0.609375 0.390625 -1.671875 0.859375q-1.0625 0.46875 -1.671875 0.46875q-3.59375 0 -5.125 -2.59375zm44.26111 -0.875q0 1.46875 -1.609375 2.46875q-1.59375 1.0 -2.921875 1.0q-2.46875 0 -3.96875 -0.625q-1.5 -0.640625 -2.828125 -2.375q-1.671875 1.53125 -4.671875 2.296875q-3.0 0.765625 -5.53125 0.765625q-4.140625 0 -6.84375 -2.21875q-2.6875 -2.234375 -2.6875 -6.578125q0 -1.859375 1.125 -3.75q1.140625 -1.90625 2.8125 -3.046875q1.796875 -1.203125 4.0625 -1.625q2.265625 -0.4375 5.265625 -0.4375q1.390625 0 3.328125 0.53125q1.9375 0.53125 3.0625 1.125l0 -1.0625q0 -3.59375 -1.765625 -4.953125q-1.765625 -1.375 -5.625 -1.375q-1.203125 0 -2.171875 0.375q-0.96875 0.359375 -2.234375 1.03125q-1.1875 0.65625 -2.265625 0.65625q-0.921875 0 -1.796875 -0.765625q-0.859375 -0.765625 -0.859375 -1.625q0 -2.8125 3.5 -4.109375q3.5 -1.296875 7.15625 -1.296875q1.875 0 4.265625 0.765625q2.40625 0.765625 4.0625 2.109375q2.0 1.65625 3.09375 4.0q1.109375 2.328125 1.109375 5.0625q0 0.859375 -0.125 2.59375q-0.140625 1.875 -0.140625 3.203125l-0.0625 1.796875q-0.140625 1.46875 -0.140625 2.328125q0 0.8125 0.5625 1.375q0.578125 0.5625 1.375 0.5625l1.859375 -0.0625q0.734375 0 1.171875 0.5625q0.4375 0.5625 0.4375 1.296875zm-21.53125 -1.734375q2.859375 0 4.796875 -0.59375q1.9375 -0.59375 4.671875 -2.203125q0.265625 -1.125 0.328125 -3.0q-3.671875 -1.734375 -6.0625 -1.734375q-2.265625 0 -3.671875 0.171875q-1.390625 0.171875 -2.53125 1.171875q-1.125 1.0 -1.125 3.1875q0 1.265625 1.21875 2.140625q1.234375 0.859375 2.375 0.859375zm25.32904 -18.53125q-0.53125 -0.390625 -0.875 -0.828125q-0.328125 -0.4375 -0.328125 -1.5625q0 -1.265625 0.890625 -1.96875q0.90625 -0.703125 2.109375 -0.703125q2.328125 0 4.03125 1.203125q1.703125 1.203125 2.5 3.328125q1.46875 -2.734375 3.734375 -3.765625q2.265625 -1.03125 6.265625 -1.03125q1.609375 0 3.296875 0.96875q1.703125 0.96875 3.109375 2.359375q1.125 1.46875 1.921875 3.640625q0.8125 2.171875 0.8125 3.890625q0 1.0 -0.140625 3.265625q-0.125 2.40625 -0.125 3.8125q0 4.65625 1.796875 5.734375q0.265625 0.125 1.0 0.328125q0.734375 0.203125 1.09375 0.40625q0.375 0.1875 0.375 0.59375q0.0625 1.59375 -1.171875 2.625q-1.234375 1.03125 -2.96875 1.03125q-2.59375 0 -4.0625 -1.390625q-1.46875 -1.40625 -2.0625 -4.265625q-0.34375 -1.0625 -0.34375 -3.140625q0 -1.125 0.140625 -3.65625q0.203125 -2.0 0.203125 -4.265625q0 -2.34375 -1.34375 -4.109375q-1.328125 -1.765625 -3.65625 -1.765625q-1.40625 0 -2.9375 0.84375q-1.53125 0.828125 -2.140625 2.03125q-1.0 2.0625 -1.328125 4.1875q-0.796875 4.140625 -0.796875 7.9375q0 0.9375 0.125 3.609375q0 0.1875 0 0.953125q0 0.765625 -0.171875 1.4375q-0.15625 0.671875 -0.5625 1.203125q-0.265625 0.265625 -1.0 0.53125q-0.71875 0.265625 -1.265625 0.265625q-0.921875 0 -2.328125 -0.796875q-1.390625 -0.796875 -1.671875 -1.796875l-0.0625 -0.9375q0 -0.53125 0.140625 -1.59375q0.796875 -4.671875 0.796875 -8.140625q0 -1.53125 -0.0625 -2.328125l-0.078125 -3.0625q0 -1.40625 -0.796875 -2.703125q-0.796875 -1.296875 -2.0625 -2.375zm62.652832 -18.265625q0 0.671875 -0.203125 1.671875q-0.0625 0.40625 -0.125 0.875q-0.0625 0.453125 -0.140625 1.125q-0.59375 6.0 -0.59375 14.859375q0 8.40625 0.734375 12.46875q0.734375 4.0625 2.265625 4.875l1.265625 0.53125q1.0 0.328125 1.5 0.734375q0.5 0.390625 0.5 1.328125q0 1.328125 -1.40625 2.296875q-1.390625 0.96875 -3.0625 0.96875q-1.734375 0 -3.40625 -1.421875q-1.65625 -1.4375 -2.71875 -3.640625q-1.140625 2.390625 -4.015625 3.828125q-2.859375 1.4375 -5.453125 1.4375q-2.328125 0 -4.0625 -0.625q-1.734375 -0.640625 -3.609375 -1.984375q-2.265625 -1.59375 -3.4375 -4.0625q-1.15625 -2.46875 -1.15625 -5.390625q0 -2.9375 1.125 -6.234375q1.140625 -3.296875 2.609375 -5.4375q1.734375 -2.46875 4.59375 -3.703125q2.875 -1.234375 5.9375 -1.234375q1.734375 0 3.0 0.640625q1.265625 0.625 2.59375 1.765625q0 -3.328125 -0.125 -5.59375q-0.078125 -0.609375 -0.078125 -1.40625q0 -5.734375 0.9375 -9.0625q0.734375 -2.796875 3.53125 -2.796875q1.53125 0 2.265625 0.671875q0.734375 0.65625 0.734375 2.515625zm-20.65625 29.734375q0 3.40625 2.203125 5.203125q1.0 0.9375 1.65625 1.265625q0.671875 0.328125 1.671875 0.328125q1.9375 0 3.703125 -1.09375q1.765625 -1.109375 2.796875 -2.90625q1.03125 -1.796875 1.03125 -3.859375l-0.0625 -6.59375q-1.40625 -1.609375 -2.578125 -2.234375q-1.15625 -0.640625 -2.421875 -0.640625q-4.265625 0 -5.875 3.265625q-0.859375 1.53125 -1.5 3.46875q-0.625 1.9375 -0.625 3.796875zm49.993103 -30.328125q1.265625 0 2.296875 0.671875q1.03125 0.65625 1.234375 2.328125q0.796875 5.265625 1.03125 10.5q0.234375 5.234375 0.234375 11.828125q0 2.796875 -0.46875 10.203125q2.9375 0.265625 4.53125 0.265625q1.140625 0 5.140625 -0.328125q2.328125 -0.34375 4.0625 -0.34375q1.59375 0 2.921875 0.3125q1.34375 0.296875 2.734375 0.953125q1.40625 0.8125 1.40625 2.46875q0 1.328125 -0.84375 2.40625q-0.828125 1.0625 -1.953125 1.0625q-0.796875 0 -2.53125 -0.265625q-3.140625 -0.46875 -6.0 -0.46875q-0.9375 0 -2.109375 0.109375q-1.15625 0.09375 -1.6875 0.09375q-1.609375 0.203125 -3.203125 0.203125q-3.265625 0 -5.875 -0.34375q-1.328125 -0.125 -2.671875 -1.015625q-1.328125 -0.90625 -1.328125 -2.640625q0 -1.0 0.28125 -5.140625q0.453125 -6.859375 0.453125 -10.46875q0 -2.796875 -0.265625 -5.859375q-0.265625 -3.0625 -0.328125 -3.859375q-0.59375 -5.671875 -0.59375 -9.34375q0 -1.734375 0.828125 -2.53125q0.828125 -0.796875 2.703125 -0.796875zm32.395813 -0.46875q2.328125 0.203125 4.0625 1.234375q1.734375 1.03125 1.734375 3.109375q0 1.53125 -1.4375 2.4375q-1.4375 0.890625 -3.4375 0.890625q-1.921875 0 -2.65625 -1.0q-0.734375 -1.0 -0.734375 -2.0625q0 -2.0 0.421875 -3.328125q0.4375 -1.34375 2.046875 -1.28125zm5.328125 29.53125l0 1.9375q0 2.59375 0.15625 4.90625q0.171875 2.296875 0.4375 4.625q-0.0625 0.65625 -1.0 1.359375q-0.921875 0.703125 -1.65625 0.703125q-1.265625 0 -2.578125 -0.5q-1.296875 -0.5 -1.5625 -1.234375q-0.390625 -2.125 -0.390625 -3.796875q0 -5.46875 -0.34375 -12.265625q-0.265625 -6.0 -0.265625 -8.390625q0 -1.203125 1.203125 -2.0625q1.203125 -0.875 2.53125 -0.875q1.9375 0 2.703125 0.875q0.765625 0.859375 0.765625 2.71875l0 12.0zm38.720276 8.140625q0.34375 0.125 1.078125 0.328125q0.734375 0.203125 1.0625 0.40625q0.328125 0.1875 0.328125 0.59375q0.078125 1.59375 -1.15625 2.625q-1.234375 1.03125 -2.90625 1.03125q-2.59375 0 -4.0625 -1.390625q-1.46875 -1.40625 -2.140625 -4.265625q-0.265625 -1.140625 -0.265625 -3.140625q0 -1.125 0.140625 -3.65625q0.125 -2.671875 0.125 -4.265625q0 -2.34375 -1.296875 -4.109375q-1.296875 -1.765625 -3.625 -1.765625q-1.40625 0 -2.9375 0.84375q-1.53125 0.828125 -2.140625 2.03125q-1.0 1.921875 -1.390625 4.1875q-0.734375 4.0 -0.734375 8.34375q0 2.0625 0.0625 3.203125q0 0.265625 0.03125 1.03125q0.03125 0.765625 -0.140625 1.40625q-0.15625 0.625 -0.5625 1.15625q-0.328125 0.328125 -1.03125 0.5625q-0.6875 0.234375 -1.296875 0.234375q-0.9375 0 -2.34375 -0.796875q-1.390625 -0.796875 -1.59375 -1.796875l-0.0625 -1.140625q0 -0.59375 0.140625 -1.390625q0.796875 -4.671875 0.796875 -8.140625q0 -1.53125 -0.0625 -2.390625l-0.078125 -3.140625q0 -1.59375 -0.796875 -3.09375q-0.796875 -1.5 -1.859375 -1.5q-0.34375 0 -0.9375 0.234375q-0.59375 0.234375 -1.0 0.234375q-0.671875 0 -1.4375 -0.671875q-0.765625 -0.671875 -0.765625 -1.40625q0 -1.390625 0.9375 -2.265625q1.0 -0.796875 1.96875 -1.265625q0.96875 -0.46875 2.234375 -0.46875q1.0625 0 1.71875 0.203125q0.671875 0.203125 1.8125 0.875q0.59375 0.328125 1.390625 1.46875q0.8125 1.125 1.34375 3.1875q1.734375 -3.203125 4.296875 -4.5q2.5625 -1.296875 6.5625 -1.296875q1.53125 0 3.296875 1.0q1.765625 1.0 3.03125 2.328125q1.203125 1.46875 2.0 3.640625q0.8125 2.171875 0.8125 3.890625q0 1.0 -0.140625 3.265625q-0.203125 1.8125 -0.203125 3.8125q0 4.65625 1.796875 5.734375zm6.5983276 -10.140625q0 -4.0625 1.796875 -6.765625q1.8125 -2.703125 5.015625 -5.09375q0.921875 -0.671875 3.125 -1.171875q2.203125 -0.5 3.875 -0.5q1.984375 0 4.21875 0.84375q2.234375 0.828125 3.640625 1.890625q2.46875 1.796875 3.390625 4.171875q0.9375 2.359375 0.9375 5.625q0 1.40625 -1.5625 2.703125q-1.5625 1.296875 -3.375 1.296875l-2.53125 -0.0625q-1.921875 0 -5.53125 0.125l-1.390625 0.078125q-1.46875 0.125 -2.203125 0.125q-1.0625 0 -2.9375 -0.265625q0.265625 3.140625 2.328125 4.90625q2.078125 1.765625 4.46875 1.765625q4.203125 0 5.875 -1.671875q1.390625 -1.0 1.859375 -1.265625q0.46875 -0.265625 1.46875 -0.265625q1.0625 0 1.859375 1.0q0.8125 1.0 0.8125 2.0q0 1.125 -1.375 2.296875q-1.359375 1.171875 -3.6875 2.4375q-1.28125 0.53125 -3.484375 0.9375q-2.1875 0.390625 -3.65625 0.390625q-2.328125 0 -5.203125 -1.359375q-2.859375 -1.375 -4.265625 -3.03125q-1.390625 -1.671875 -2.4375 -4.734375q-1.03125 -3.078125 -1.03125 -6.40625zm13.265625 -1.796875q4.734375 0 6.9375 -0.328125q-0.125 -1.9375 -1.203125 -3.171875q-1.0625 -1.234375 -2.921875 -2.09375q-0.609375 -0.28125 -1.078125 -0.40625q-0.46875 -0.140625 -1.0625 -0.140625q-3.0625 0 -5.171875 1.671875q-2.09375 1.671875 -2.5 4.265625q3.34375 0.203125 7.0 0.203125zm38.471985 17.265625q-1.53125 0 -2.34375 -0.828125q-0.796875 -0.84375 -0.796875 -1.703125q0.40625 -2.40625 0.46875 -5.140625q0.0625 -2.734375 0.0625 -3.265625l0 -2.390625q0 -2.734375 -0.0625 -4.828125q-0.0625 -2.109375 -0.140625 -3.578125q-0.265625 -5.859375 -0.265625 -9.125l0 -2.078125q0.140625 -3.1875 0.34375 -5.59375q0.0625 -0.9375 1.15625 -2.0q1.109375 -1.0625 3.046875 -1.328125q6.328125 -0.671875 15.71875 -0.671875l2.140625 0q2.328125 0 4.625 0.875q2.296875 0.859375 2.296875 2.921875q0 1.40625 -0.671875 2.234375q-0.65625 0.828125 -2.59375 0.828125q-0.859375 0 -2.0 -0.125q-1.125 -0.140625 -1.59375 -0.203125q-2.53125 -0.390625 -3.9375 -0.390625q-7.71875 0 -11.71875 1.0625l0 3.65625l0 7.671875q4.53125 0 9.453125 -0.40625q3.609375 -0.265625 4.671875 -0.265625q1.53125 0 2.625 0.703125q1.109375 0.703125 1.109375 2.109375q0 3.453125 -4.734375 3.453125q-1.140625 0 -3.40625 0.265625q-2.53125 0.28125 -3.921875 0.28125q-0.875 0 -2.46875 -0.140625q-2.0625 -0.140625 -2.796875 -0.0625q-0.078125 1.734375 0.0625 5.390625l0.0625 4.46875q0 2.265625 -0.0625 3.375q-0.0625 1.09375 -0.40625 2.359375q-0.1875 1.0625 -1.1875 1.765625q-1.0 0.703125 -2.734375 0.703125zm30.38733 -23.59375q-1.734375 -1.203125 -1.734375 -2.53125q0 -0.9375 0.796875 -1.734375q0.8125 -0.8125 2.40625 -0.8125q1.859375 0 3.359375 0.96875q1.5 0.96875 2.109375 2.765625q1.53125 -1.796875 3.5 -2.859375q1.96875 -1.0625 4.03125 -1.0625q2.46875 0 4.46875 1.328125q2.0 1.328125 2.0 3.59375q0 1.265625 -1.109375 2.609375q-1.09375 1.328125 -2.234375 1.328125q-0.59375 0 -1.03125 -0.296875q-0.421875 -0.296875 -1.03125 -0.90625q-0.671875 -0.65625 -1.140625 -0.953125q-0.453125 -0.3125 -1.0625 -0.3125q-1.0625 0 -2.0 0.34375q-0.921875 0.328125 -1.265625 0.796875q-1.0625 1.65625 -1.5625 3.0q-0.5 1.328125 -0.5 2.859375q0 1.140625 -0.0625 1.796875l-0.0625 3.796875q0 0.875 0.0625 1.9375q0.0625 1.0625 0.125 1.609375q0.203125 1.796875 0.203125 3.453125q0 1.140625 -0.875 2.015625q-0.859375 0.859375 -2.125 0.859375q-2.0 0 -2.9375 -0.765625q-0.921875 -0.765625 -0.921875 -2.84375l-0.078125 -4.265625q-0.0625 -1.265625 -0.0625 -3.59375l0.0625 -4.40625q0.140625 -3.1875 0.140625 -5.1875q0 -0.734375 -0.296875 -1.328125q-0.296875 -0.609375 -1.171875 -1.203125zm55.129456 20.1875q0 1.46875 -1.609375 2.46875q-1.59375 1.0 -2.921875 1.0q-2.46875 0 -3.96875 -0.625q-1.5 -0.640625 -2.828125 -2.375q-1.671875 1.53125 -4.671875 2.296875q-3.0 0.765625 -5.53125 0.765625q-4.140625 0 -6.84375 -2.21875q-2.6875 -2.234375 -2.6875 -6.578125q0 -1.859375 1.125 -3.75q1.140625 -1.90625 2.8125 -3.046875q1.796875 -1.203125 4.0625 -1.625q2.265625 -0.4375 5.265625 -0.4375q1.390625 0 3.328125 0.53125q1.9375 0.53125 3.0625 1.125l0 -1.0625q0 -3.59375 -1.765625 -4.953125q-1.765625 -1.375 -5.625 -1.375q-1.203125 0 -2.171875 0.375q-0.96875 0.359375 -2.234375 1.03125q-1.1875 0.65625 -2.265625 0.65625q-0.921875 0 -1.796875 -0.765625q-0.859375 -0.765625 -0.859375 -1.625q0 -2.8125 3.5 -4.109375q3.5 -1.296875 7.15625 -1.296875q1.875 0 4.265625 0.765625q2.40625 0.765625 4.0625 2.109375q2.0 1.65625 3.09375 4.0q1.109375 2.328125 1.109375 5.0625q0 0.859375 -0.125 2.59375q-0.140625 1.875 -0.140625 3.203125l-0.0625 1.796875q-0.140625 1.46875 -0.140625 2.328125q0 0.8125 0.5625 1.375q0.578125 0.5625 1.375 0.5625l1.859375 -0.0625q0.734375 0 1.171875 0.5625q0.4375 0.5625 0.4375 1.296875zm-21.53125 -1.734375q2.859375 0 4.796875 -0.59375q1.9375 -0.59375 4.671875 -2.203125q0.265625 -1.125 0.328125 -3.0q-3.671875 -1.734375 -6.0625 -1.734375q-2.265625 0 -3.671875 0.171875q-1.390625 0.171875 -2.53125 1.171875q-1.125 1.0 -1.125 3.1875q0 1.265625 1.21875 2.140625q1.234375 0.859375 2.375 0.859375zm66.188416 -6.796875l0.265625 -5.125q0 -2.796875 -0.640625 -4.125q-0.625 -1.34375 -2.828125 -1.34375q-4.1875 0 -6.328125 4.703125q-2.140625 4.6875 -2.140625 13.6875q0 0.40625 0.03125 1.640625q0.046875 1.234375 -0.390625 1.90625q-0.4375 0.65625 -1.5 0.65625q-2.671875 0 -3.609375 -1.46875q-0.921875 -1.46875 -0.921875 -4.328125q0 -1.46875 0.40625 -6.0q0.328125 -3.203125 0.328125 -4.46875q0 -3.328125 -1.0 -4.859375q-1.0 -1.53125 -3.46875 -1.53125q-2.859375 0 -4.734375 2.859375q-1.859375 2.859375 -2.734375 7.09375q-0.859375 4.234375 -0.859375 8.375q0 1.921875 -0.640625 3.125q-0.625 1.203125 -2.359375 1.203125q-1.265625 0 -2.53125 -0.703125q-1.265625 -0.703125 -1.265625 -1.890625q0 -1.265625 0.265625 -2.53125q0.328125 -2.078125 0.53125 -6.078125q0.203125 -4.0 0.203125 -7.53125q0 -1.59375 -0.765625 -3.09375q-0.765625 -1.5 -1.84375 -1.5q-0.265625 0 -0.96875 0.265625q-0.6875 0.265625 -1.03125 0.265625q-0.859375 0 -1.5625 -0.796875q-0.703125 -0.796875 -0.703125 -1.328125q0 -1.671875 1.625 -2.828125q1.640625 -1.171875 3.4375 -1.171875q2.46875 0 4.296875 1.671875q1.84375 1.65625 2.78125 4.453125q1.59375 -2.859375 3.75 -4.484375q2.171875 -1.640625 5.3125 -1.640625q5.734375 0 8.328125 5.125q1.53125 -2.46875 4.765625 -3.796875q3.234375 -1.328125 6.375 -1.328125q2.265625 0 4.328125 1.375q2.0625 1.359375 3.296875 3.59375q1.234375 2.21875 1.234375 4.625q0 1.53125 -0.328125 6.734375q-0.078125 0.859375 -0.140625 1.890625q-0.0625 1.03125 -0.0625 2.171875q0 1.40625 0.6875 2.28125q0.703125 0.859375 1.84375 1.046875q2.265625 0.53125 2.265625 1.875q0 1.53125 -1.40625 2.4375q-1.390625 0.890625 -3.125 0.890625q-3.265625 0 -4.96875 -1.890625q-1.703125 -1.90625 -1.703125 -5.5l0.203125 -4.609375zm15.265259 -2.390625q0 -2.546875 0.921875 -5.109375q0.9375 -2.5625 2.484375 -4.6875q1.53125 -2.140625 4.859375 -3.5q3.328125 -1.375 5.9375 -1.375q2.65625 0 5.421875 0.734375q2.765625 0.734375 3.84375 2.265625q2.453125 3.46875 2.453125 6.796875q0 1.796875 -0.765625 3.0625q-0.765625 1.265625 -2.15625 2.734375q-1.140625 1.203125 -3.578125 1.609375q-2.421875 0.390625 -4.828125 0.390625q-1.53125 0 -3.734375 -0.296875q-2.1875 -0.296875 -4.265625 -0.765625q0.140625 1.328125 0.671875 2.59375q0.53125 1.265625 1.265625 1.9375q1.328125 1.265625 2.765625 1.609375q1.4375 0.328125 3.703125 0.328125q2.390625 0 4.46875 -0.796875q1.65625 -0.609375 2.734375 -0.609375q1.265625 0 1.921875 0.765625q0.671875 0.765625 0.671875 1.96875q0 1.671875 -1.9375 2.734375q-1.9375 1.0625 -4.4375 1.5625q-2.484375 0.5 -4.03125 0.5q-3.125 0 -6.0625 -1.125q-2.921875 -1.140625 -4.859375 -3.203125q-1.609375 -1.859375 -2.546875 -4.484375q-0.921875 -2.640625 -0.921875 -5.640625zm14.53125 -9.0q-1.46875 0 -2.9375 0.5625q-1.46875 0.5625 -2.390625 1.5625q-1.203125 1.265625 -1.640625 2.03125q-0.4375 0.765625 -0.5625 2.109375q1.671875 0.53125 6.9375 0.53125q2.859375 0 4.421875 -0.859375q1.578125 -0.875 1.578125 -2.28125q0 -1.390625 -1.734375 -2.515625q-1.734375 -1.140625 -3.671875 -1.140625zm48.59192 7.265625q0.40625 -1.46875 0.859375 -4.0q0.671875 -3.0 1.0625 -4.53125q0.40625 -1.53125 1.078125 -2.609375q0.734375 -1.203125 1.296875 -1.59375q0.5625 -0.40625 1.234375 -0.40625q3.46875 0 3.46875 2.671875q0 1.328125 -1.0625 5.0q-3.53125 10.65625 -5.078125 16.53125q-0.65625 2.46875 -2.0 3.765625q-1.328125 1.296875 -3.59375 1.296875q-1.125 0 -2.296875 -1.09375q-1.171875 -1.109375 -1.90625 -2.703125l-0.734375 -1.796875q-1.859375 -4.734375 -2.765625 -7.296875q-0.890625 -2.578125 -1.15625 -4.640625l-0.609375 2.140625q-1.59375 5.71875 -3.328125 10.65625q-0.859375 2.53125 -2.140625 3.640625q-1.265625 1.09375 -3.265625 1.09375q-1.1875 0 -2.09375 -0.53125q-0.90625 -0.53125 -1.703125 -1.796875q-1.0625 -1.734375 -2.03125 -4.671875q-0.96875 -2.9375 -2.765625 -9.125q-0.859375 -2.671875 -1.59375 -5.640625q-0.734375 -2.96875 -0.734375 -4.15625q0 -1.40625 0.734375 -2.203125q0.734375 -0.796875 2.125 -0.796875q1.796875 0 2.53125 0.703125q0.734375 0.6875 1.34375 2.09375q0.328125 2.390625 1.46875 6.796875l1.453125 6.265625q0.140625 0.734375 0.8125 3.0625l0.53125 1.9375q1.46875 -3.140625 2.46875 -6.0q1.0 -2.875 2.1875 -7.0625q0.078125 -0.265625 1.34375 -4.609375q0.859375 -1.390625 1.515625 -2.09375q0.671875 -0.703125 1.34375 -0.703125q1.328125 0 2.296875 0.84375q0.96875 0.828125 1.4375 2.03125q0.796875 2.59375 1.40625 4.734375q0.265625 0.859375 1.21875 4.15625q0.96875 3.296875 1.765625 5.5625q0.8125 2.265625 1.34375 3.203125l2.53125 -8.125zm40.861694 -5.53125q0.53125 0.921875 0.859375 2.6875q0.34375 1.765625 0.34375 3.171875q0 1.796875 -0.40625 4.0q-0.390625 2.203125 -0.734375 3.40625q-4.59375 8.390625 -13.59375 8.390625q-3.328125 0 -6.796875 -2.1875q-3.46875 -2.203125 -4.796875 -5.078125q-1.8125 -5.671875 -1.8125 -7.265625q0 -2.671875 1.171875 -5.671875q1.171875 -3.0 2.96875 -5.1875q1.203125 -1.53125 4.125 -2.625q2.9375 -1.109375 5.34375 -1.109375q4.65625 0 7.890625 1.765625q3.234375 1.765625 5.4375 5.703125zm-5.796875 10.71875q0.328125 -0.65625 0.328125 -4.453125q0 -1.9375 -0.703125 -3.796875q-0.6875 -1.875 -2.03125 -3.203125q-0.125 -0.140625 -0.734375 -0.4375q-0.59375 -0.296875 -1.625 -0.59375q-1.03125 -0.3125 -2.375 -0.3125q-3.734375 0 -5.46875 3.0q-1.71875 3.0 -1.71875 6.796875q0 0.609375 0.390625 2.484375q0.40625 1.859375 0.609375 2.390625q0.53125 0.9375 2.15625 2.171875q1.640625 1.21875 3.5625 1.21875q3.0 0 4.765625 -1.421875q1.78125 -1.4375 2.84375 -3.84375zm13.658325 -12.71875q-1.734375 -1.203125 -1.734375 -2.53125q0 -0.9375 0.796875 -1.734375q0.8125 -0.8125 2.40625 -0.8125q1.859375 0 3.359375 0.96875q1.5 0.96875 2.109375 2.765625q1.53125 -1.796875 3.5 -2.859375q1.96875 -1.0625 4.03125 -1.0625q2.46875 0 4.46875 1.328125q2.0 1.328125 2.0 3.59375q0 1.265625 -1.109375 2.609375q-1.09375 1.328125 -2.234375 1.328125q-0.59375 0 -1.03125 -0.296875q-0.421875 -0.296875 -1.03125 -0.90625q-0.671875 -0.65625 -1.140625 -0.953125q-0.453125 -0.3125 -1.0625 -0.3125q-1.0625 0 -2.0 0.34375q-0.921875 0.328125 -1.265625 0.796875q-1.0625 1.65625 -1.5625 3.0q-0.5 1.328125 -0.5 2.859375q0 1.140625 -0.0625 1.796875l-0.0625 3.796875q0 0.875 0.0625 1.9375q0.0625 1.0625 0.125 1.609375q0.203125 1.796875 0.203125 3.453125q0 1.140625 -0.875 2.015625q-0.859375 0.859375 -2.125 0.859375q-2.0 0 -2.9375 -0.765625q-0.921875 -0.765625 -0.921875 -2.84375l-0.078125 -4.265625q-0.0625 -1.265625 -0.0625 -3.59375l0.0625 -4.40625q0.140625 -3.1875 0.140625 -5.1875q0 -0.734375 -0.296875 -1.328125q-0.296875 -0.609375 -1.171875 -1.203125zm30.004456 23.65625q-1.34375 0 -2.28125 -0.46875q-0.921875 -0.46875 -1.125 -1.0q-0.734375 -2.65625 -0.734375 -7.0q0 -8.0 0.265625 -13.0q0.265625 -5.921875 0.265625 -11.390625q0 -1.59375 -0.390625 -4.671875q-0.078125 -0.53125 -0.21875 -1.921875q-0.125 -1.40625 -0.125 -2.609375q0 -1.46875 1.03125 -2.328125q1.046875 -0.875 2.703125 -0.875q1.34375 0 2.171875 0.84375q0.828125 0.828125 0.828125 2.234375q0 2.125 0.140625 6.0q0.125 3.59375 0.125 5.390625q0 2.0 -0.125 5.328125q-0.140625 2.0 -0.140625 2.9375q0 2.9375 0.0625 4.875q2.46875 -2.46875 6.46875 -5.796875q4.0 -3.34375 6.203125 -4.671875q2.328125 -1.40625 3.0625 -1.40625q1.40625 0 2.40625 0.609375q1.0 0.59375 1.0 1.734375q0 1.125 -0.34375 1.796875q-0.328125 0.65625 -1.1875 1.328125l-7.53125 5.53125q1.125 0.46875 2.15625 2.078125q1.03125 1.59375 2.5 4.328125q1.671875 3.125 2.765625 4.65625q1.109375 1.53125 2.234375 1.53125l1.671875 -0.0625q0.46875 0 0.828125 0.53125q0.375 0.53125 0.375 1.53125q0 1.53125 -1.5 2.46875q-1.5 0.9375 -3.375 0.9375q-2.59375 0 -4.59375 -2.03125q-2.0 -2.03125 -3.796875 -5.5l-1.46875 -2.9375q-0.9375 -1.859375 -1.4375 -2.65625q-0.5 -0.8125 -1.171875 -1.078125l-5.328125 4.265625l0.265625 7.265625q0 1.734375 -0.90625 2.46875q-0.890625 0.734375 -1.75 0.734375z" fill-rule="nonzero"/></g></svg>